<svg width="28" height="28" viewBox="0 0 28 28" fill="none" xmlns="http://www.w3.org/2000/svg">
<g clip-path="url(#clip0_73_110)">
<path d="M23.8997 4.09897C21.2559 1.45571 17.7398 0 13.9991 0C10.2594 0 6.74392 1.45571 4.10025 4.09897C1.45618 6.74269 0 10.2589 0 14C0 17.7397 1.45618 21.2555 4.10025 23.8996C6.74427 26.5438 10.2598 28 13.9991 28C17.7394 28 21.2555 26.5438 23.8997 23.8997C26.5438 21.2556 28 17.7398 28 14C28 10.2587 26.5438 6.74252 23.8997 4.09897ZM13.9991 26.8333C6.92329 26.8333 1.16667 21.0764 1.16667 14C1.16667 6.92364 6.92329 1.16667 13.9991 1.16667C21.076 1.16667 26.8333 6.92364 26.8333 14C26.8333 21.0764 21.076 26.8333 13.9991 26.8333Z" fill="#507AB9"/>
<path d="M3.86278 11.7032C3.91656 11.7186 3.97081 11.7261 4.02413 11.7261C4.27765 11.7261 4.51104 11.5595 4.58448 11.3036L4.59994 11.2502C4.69047 10.9411 4.51314 10.617 4.20397 10.5265C3.89469 10.4361 3.57076 10.6133 3.48029 10.9226L3.4632 10.9815C3.37424 11.2912 3.55315 11.6143 3.86278 11.7032Z" fill="#507AB9"/>
<path d="M3.6354 14.0803C3.94456 14.0803 4.20246 13.8374 4.21756 13.5252L4.22036 13.4704C4.23786 13.1487 3.99129 12.8737 3.66958 12.8563C3.34787 12.8393 3.07289 13.0854 3.05539 13.4071L3.05224 13.4688C3.03666 13.7906 3.28493 14.0641 3.6067 14.0796C3.61632 14.0801 3.62589 14.0803 3.6354 14.0803Z" fill="#507AB9"/>
<path d="M4.43268 16.1277L4.43548 16.073C4.45298 15.7513 4.20641 15.4763 3.8847 15.4588C3.56299 15.4418 3.28801 15.688 3.27051 16.0096L3.26736 16.0713C3.25178 16.3932 3.49999 16.6667 3.82182 16.6822C3.83144 16.6827 3.84101 16.6829 3.85052 16.6829C4.15968 16.6829 4.41757 16.4399 4.43268 16.1277Z" fill="#507AB9"/>
<path d="M5.25891 18.4212C5.11366 18.1335 4.76279 18.0181 4.47526 18.1633C4.18768 18.3085 4.07224 18.6594 4.21749 18.947L4.24531 19.0017C4.3485 19.2035 4.55302 19.3195 4.76512 19.3195C4.85449 19.3195 4.94525 19.2989 5.0303 19.2554C5.31713 19.1086 5.4307 18.7572 5.28399 18.4704L5.25891 18.4212Z" fill="#507AB9"/>
<path d="M6.49937 20.2997C6.29205 20.0531 5.92409 20.0214 5.67745 20.2287C5.43088 20.436 5.39915 20.804 5.60646 21.0506L5.64636 21.0977C5.76175 21.2332 5.92578 21.3029 6.0908 21.3029C6.2245 21.3029 6.3589 21.2573 6.46869 21.1638C6.71398 20.9549 6.74355 20.5867 6.53472 20.3414L6.49937 20.2997Z" fill="#507AB9"/>
<path d="M5.25865 8.38177C4.97847 8.2227 4.6224 8.32111 4.46345 8.60128L4.43294 8.65547C4.27579 8.9367 4.37641 9.29212 4.6577 9.44921C4.74776 9.49955 4.84535 9.52341 4.94166 9.52341C5.14612 9.52341 5.34463 9.41567 5.45144 9.22451L5.47821 9.17697C5.63711 8.89674 5.53888 8.54067 5.25865 8.38177Z" fill="#507AB9"/>
<path d="M5.94762 6.56637L5.90615 6.61151C5.68921 6.84969 5.70647 7.21865 5.94465 7.43559C6.05647 7.53738 6.19706 7.58761 6.33723 7.58761C6.49567 7.58761 6.65357 7.52338 6.76866 7.39703L6.80594 7.35632C7.02411 7.11931 7.00882 6.75023 6.77176 6.53206C6.53475 6.31384 6.16573 6.32918 5.94762 6.56637Z" fill="#507AB9"/>
<path d="M22.3375 8.85755C22.4477 9.03645 22.6389 9.13504 22.8347 9.13504C22.9391 9.13504 23.0447 9.1071 23.1401 9.04835C23.4144 8.87942 23.4998 8.52003 23.3309 8.24575L23.2982 8.19319C23.1275 7.91995 22.7675 7.837 22.4944 8.00763C22.2211 8.17843 22.1381 8.53829 22.3089 8.81146L22.3375 8.85755Z" fill="#507AB9"/>
<path d="M8.13669 6.02079C8.25021 6.02079 8.36495 5.98772 8.46569 5.91877L8.51172 5.88738C8.7783 5.70643 8.84778 5.34372 8.66689 5.07713C8.48594 4.81055 8.12322 4.74113 7.85664 4.92191L7.80664 4.95603C7.54076 5.13798 7.4728 5.50104 7.65474 5.76687C7.76785 5.93201 7.95067 6.02079 8.13669 6.02079Z" fill="#507AB9"/>
<path d="M24.2694 12.41C23.9488 12.4416 23.7144 12.7271 23.7461 13.0477L23.7514 13.1033C23.7798 13.4055 24.0339 13.632 24.3314 13.632C24.3497 13.632 24.3682 13.6312 24.3868 13.6294C24.7075 13.5992 24.9431 13.3147 24.9129 12.9939L24.9071 12.9333C24.8754 12.6127 24.5895 12.3791 24.2694 12.41Z" fill="#507AB9"/>
<path d="M23.272 10.8459L23.2895 10.8981C23.3709 11.1426 23.5985 11.2974 23.8429 11.2974C23.904 11.2974 23.966 11.2877 24.0272 11.2674C24.3328 11.1656 24.4982 10.8353 24.3965 10.5297L24.3769 10.4713C24.2735 10.1662 23.9423 10.0029 23.6372 10.1062C23.3321 10.2096 23.1685 10.5408 23.272 10.8459Z" fill="#507AB9"/>
<path d="M10.2466 4.90862C10.3166 4.90862 10.3878 4.89591 10.4569 4.86913L10.5076 4.84976C10.8089 4.73566 10.9606 4.39891 10.8465 4.09761C10.7324 3.79632 10.3957 3.64454 10.0945 3.7587L10.0361 3.78098C9.73565 3.89724 9.58632 4.23499 9.70252 4.53552C9.79194 4.76693 10.0127 4.90862 10.2466 4.90862Z" fill="#507AB9"/>
<path d="M14.8885 4.24545L14.9434 4.25064C14.9625 4.25245 14.9815 4.25338 15.0003 4.25338C15.2971 4.25338 15.551 4.02769 15.5802 3.72611C15.6112 3.40545 15.3763 3.12032 15.0557 3.08934L14.9939 3.08357C14.6735 3.05387 14.3894 3.29094 14.3602 3.61177C14.3311 3.93261 14.5677 4.21634 14.8885 4.24545Z" fill="#507AB9"/>
<path d="M12.555 4.30864C12.5822 4.30864 12.6099 4.30677 12.6376 4.30281L12.6905 4.29546C13.0099 4.25293 13.2343 3.95963 13.1918 3.64026C13.1492 3.32082 12.8556 3.0963 12.5366 3.139L12.4739 3.14757C12.1549 3.19278 11.933 3.48806 11.9782 3.80709C12.0195 4.09841 12.2691 4.30864 12.555 4.30864Z" fill="#507AB9"/>
<path d="M21.7253 6.22475C21.4966 5.99795 21.1272 5.99952 20.9004 6.22819C20.6735 6.45697 20.6751 6.82628 20.9038 7.0532L20.9429 7.09217C21.0569 7.20638 21.2063 7.26349 21.3558 7.26349C21.5049 7.26349 21.654 7.20667 21.7678 7.09304C21.9959 6.86548 21.9963 6.49617 21.7687 6.26809L21.7253 6.22475Z" fill="#507AB9"/>
<path d="M22.9236 19.3244C22.6566 19.1443 22.294 19.2146 22.1138 19.4817L22.0832 19.5265C21.9012 19.7922 21.969 20.1553 22.2349 20.3373C22.3357 20.4064 22.4504 20.4395 22.564 20.4395C22.75 20.4395 22.9328 20.3508 23.0458 20.1857L23.0809 20.1342C23.261 19.8673 23.1906 19.5047 22.9236 19.3244Z" fill="#507AB9"/>
<path d="M20.6488 21.1911L20.6078 21.2288C20.3702 21.4465 20.3541 21.8155 20.5718 22.053C20.6868 22.1785 20.8441 22.2422 21.002 22.2422C21.1428 22.2422 21.284 22.1916 21.396 22.089L21.4406 22.0479C21.6772 21.8293 21.6918 21.4602 21.4731 21.2236C21.2544 20.987 20.8854 20.9724 20.6488 21.1911Z" fill="#507AB9"/>
<path d="M19.7965 4.69961L19.7453 4.66788C19.471 4.49883 19.1116 4.58417 18.9426 4.85851C18.7737 5.13279 18.859 5.49213 19.1332 5.66118L19.1812 5.69087C19.277 5.75037 19.3833 5.77866 19.4883 5.77866C19.6834 5.77866 19.874 5.68083 19.9845 5.50286C20.1543 5.2291 20.0702 4.86948 19.7965 4.69961Z" fill="#507AB9"/>
<path d="M8.18172 21.8776L8.1368 21.8443C7.87856 21.6517 7.51305 21.7049 7.32043 21.9632C7.12781 22.2214 7.18101 22.5869 7.43925 22.7795L7.48802 22.8156C7.59232 22.8928 7.71389 22.93 7.8344 22.93C8.01308 22.93 8.18948 22.8482 8.30387 22.6935C8.4955 22.4345 8.44078 22.0692 8.18172 21.8776Z" fill="#507AB9"/>
<path d="M24.3633 14.7991C24.0441 14.7566 23.7505 14.9806 23.7078 15.3L23.7004 15.3542C23.6555 15.6732 23.8778 15.9681 24.1968 16.013C24.2244 16.0168 24.2517 16.0188 24.2787 16.0188C24.5649 16.0188 24.8147 15.8081 24.8557 15.5166L24.8641 15.4547C24.9069 15.1354 24.6826 14.8419 24.3633 14.7991Z" fill="#507AB9"/>
<path d="M23.9063 17.1462C23.6054 17.0308 23.2682 17.1817 23.1531 17.4827L23.1327 17.5357C23.0168 17.8363 23.1665 18.1739 23.4671 18.2898C23.5361 18.3164 23.607 18.3291 23.6768 18.3291C23.911 18.3291 24.1319 18.187 24.2212 17.9555L24.2427 17.8995C24.3579 17.5985 24.2072 17.2612 23.9063 17.1462Z" fill="#507AB9"/>
<path d="M18.8332 22.521L18.784 22.5488C18.5031 22.7064 18.4032 23.062 18.5609 23.3429C18.6679 23.5335 18.866 23.6408 19.0701 23.6408C19.1668 23.6408 19.2648 23.6167 19.3551 23.566L19.4076 23.5365C19.688 23.3778 19.7867 23.022 19.6281 22.7415C19.4696 22.4612 19.1136 22.3624 18.8332 22.521Z" fill="#507AB9"/>
<path d="M14.5393 23.7802L14.4827 23.7833C14.161 23.8002 13.9139 24.0748 13.931 24.3966C13.9474 24.7078 14.2049 24.9492 14.513 24.9492C14.5234 24.9492 14.5337 24.9489 14.5442 24.9483L14.6042 24.9451C14.9259 24.9272 15.1721 24.6519 15.1542 24.3302C15.1362 24.0085 14.8603 23.7623 14.5393 23.7802Z" fill="#507AB9"/>
<path d="M12.2921 23.6464L12.2365 23.6364C11.9194 23.5789 11.6159 23.7894 11.5584 24.1064C11.5009 24.4234 11.7114 24.7269 12.0283 24.7844L12.0879 24.7951C12.1224 24.8013 12.1568 24.8042 12.1907 24.8042C12.4681 24.8042 12.7141 24.6056 12.7643 24.3229C12.8207 24.0057 12.6093 23.7028 12.2921 23.6464Z" fill="#507AB9"/>
<path d="M17.5218 3.62063L17.4615 3.60027C17.1559 3.49865 16.8256 3.66391 16.7238 3.96952C16.6221 4.27519 16.7874 4.60547 17.0931 4.70726L17.1436 4.72429C17.2063 4.74576 17.2701 4.75597 17.3328 4.75597C17.5751 4.75597 17.8016 4.60366 17.8845 4.36152C17.989 4.05679 17.8266 3.72504 17.5218 3.62063Z" fill="#507AB9"/>
<path d="M10.1344 22.9995L10.0857 22.9784C9.79096 22.8485 9.44662 22.9821 9.31666 23.2768C9.18663 23.5716 9.32027 23.9159 9.61509 24.0459C9.63451 24.0545 9.65406 24.063 9.6736 24.0714C9.74873 24.1037 9.82684 24.119 9.90372 24.119C10.1298 24.119 10.345 23.9867 10.4399 23.7659C10.5671 23.4699 10.4304 23.1268 10.1344 22.9995Z" fill="#507AB9"/>
<path d="M16.7592 23.3976L16.7081 23.4124C16.3982 23.5003 16.2182 23.8228 16.306 24.1327C16.3788 24.3895 16.6126 24.5571 16.867 24.5571C16.9197 24.5571 16.9732 24.5499 17.0264 24.5348L17.0874 24.5172C17.3966 24.4266 17.5737 24.1025 17.4831 23.7934C17.3925 23.4843 17.0685 23.3073 16.7592 23.3976Z" fill="#507AB9"/>
<path d="M15.02 12.9842V6.13997C15.02 5.81786 14.7589 5.55664 14.4367 5.55664C14.1145 5.55664 13.8534 5.81786 13.8534 6.13997V12.9916C13.3262 13.2071 12.941 13.7011 12.8818 14.2902H7.88656C7.56438 14.2902 7.30322 14.5514 7.30322 14.8735C7.30322 15.1956 7.56438 15.4569 7.88656 15.4569H13.2434C13.532 15.7983 13.9637 16.0159 14.4456 16.0159C15.3133 16.0159 16.0192 15.3129 16.0192 14.449C16.0192 13.7839 15.6043 13.2142 15.02 12.9842Z" fill="#507AB9"/>
</g>
<defs>
<clipPath id="clip0_73_110">
<rect width="28" height="28" fill="white"/>
</clipPath>
</defs>
</svg>
