<svg width="50" height="50" viewBox="0 0 50 50" fill="none" xmlns="http://www.w3.org/2000/svg">
<path fill-rule="evenodd" clip-rule="evenodd" d="M25.3501 1.44924L24.9667 0.991211L24.5833 1.44924L20.7703 6.00441L15.2212 4.3116L14.6118 4.12569L14.5761 4.76184L14.249 10.5928L8.56669 12.8242L7.99099 13.0503L8.33267 13.5659L11.483 18.3193L8.33556 22.9628L7.98912 23.4739L8.56111 23.7065L14.5753 26.1521V31.7431V32.427L15.227 32.2196L21.2045 30.3173L24.5587 35.0518L24.9425 35.5936L25.3572 35.0751L29.1629 30.3172L34.6958 32.2161L35.321 32.4306L35.3573 31.7706L35.6829 25.8604L41.4398 24.1705L42.0808 23.9823L41.7196 23.4204L38.4486 18.3313L41.7114 13.5724L42.0691 13.0505L41.4787 12.8231L35.7031 10.5978V4.78984V4.12545L35.0647 4.30939L29.1667 6.00868L25.3501 1.44924ZM21.3245 6.90021L24.9667 2.54915L28.6089 6.90021L28.8178 7.14987L29.1307 7.05973L34.7031 5.45424V10.941V11.2842L35.0234 11.4076L40.5288 13.5287L37.4361 18.0397L37.2484 18.3135L37.4279 18.5928L40.5172 23.3991L35.0623 25.0004L34.7233 25.0999L34.7039 25.4526L34.3952 31.0557L29.1546 29.2571L28.8217 29.1429L28.6018 29.4177L24.9909 33.9321L21.8092 29.441L21.5979 29.1427L21.2496 29.2536L15.5753 31.0593V25.8157V25.4792L15.2637 25.3525L9.50977 23.0128L12.4988 18.6029L12.6868 18.3255L12.5017 18.0462L9.5079 13.529L14.913 11.4064L15.2115 11.2892L15.2295 10.969L15.5389 5.454L20.7953 7.05752L21.112 7.15414L21.3245 6.90021ZM39.1184 45.2034L34.2878 33.0129L33.3581 33.3813L37.6246 44.148L32.7093 41.0502L32.2065 40.7332L31.9803 41.283L29.9397 46.2437L26.1264 35.8212L25.1872 36.1648L29.4428 47.7961L29.8851 49.005L30.3748 47.8146L32.679 42.2131L38.387 45.8106L39.6826 46.6271L39.1184 45.2034ZM15.4126 33.0205L10.812 45.211L10.2706 46.6456L11.5536 45.8059L17.0283 42.2228L19.3286 47.8146L19.7943 48.9468L20.2543 47.8122L24.97 36.1809L24.0433 35.8052L19.7876 46.3019L17.723 41.283L17.4929 40.7236L16.9868 41.0548L12.289 44.1295L16.3482 33.3736L15.4126 33.0205ZM33.9731 18.3224C33.9731 23.0559 30.0189 26.9406 25.0817 26.9406C20.1446 26.9406 16.1904 23.0559 16.1904 18.3224C16.1904 13.5889 20.1446 9.70421 25.0817 9.70421C30.0189 9.70421 33.9731 13.5889 33.9731 18.3224ZM34.9731 18.3224C34.9731 23.6344 30.5446 27.9406 25.0817 27.9406C19.6189 27.9406 15.1904 23.6344 15.1904 18.3224C15.1904 13.0104 19.6189 8.70421 25.0817 8.70421C30.5446 8.70421 34.9731 13.0104 34.9731 18.3224Z" fill="#EEEEEE"/>
<path d="M24.9667 0.991211L25.1584 0.830742L24.9667 0.601728L24.775 0.830742L24.9667 0.991211ZM25.3501 1.44924L25.5418 1.28877V1.28877L25.3501 1.44924ZM24.5833 1.44924L24.3916 1.28877V1.28877L24.5833 1.44924ZM20.7703 6.00441L20.6973 6.24353L20.8557 6.29184L20.962 6.16488L20.7703 6.00441ZM15.2212 4.3116L15.2942 4.07248L15.2212 4.3116ZM14.6118 4.12569L14.6847 3.88657L14.38 3.79361L14.3622 4.11169L14.6118 4.12569ZM14.5761 4.76184L14.8257 4.77584L14.5761 4.76184ZM14.249 10.5928L14.3404 10.8255L14.4897 10.7669L14.4986 10.6068L14.249 10.5928ZM8.56669 12.8242L8.65807 13.0569H8.65807L8.56669 12.8242ZM7.99099 13.0503L7.89961 12.8176L7.61176 12.9306L7.7826 13.1884L7.99099 13.0503ZM8.33267 13.5659L8.12428 13.704L8.33267 13.5659ZM11.483 18.3193L11.6899 18.4596L11.784 18.3208L11.6914 18.1812L11.483 18.3193ZM8.33556 22.9628L8.5425 23.1031H8.5425L8.33556 22.9628ZM7.98912 23.4739L7.78218 23.3337L7.60896 23.5892L7.89495 23.7055L7.98912 23.4739ZM8.56111 23.7065L8.65528 23.4749H8.65528L8.56111 23.7065ZM14.5753 26.1521H14.8253V25.9839L14.6695 25.9205L14.5753 26.1521ZM14.5753 32.427H14.3253V32.7689L14.6511 32.6652L14.5753 32.427ZM15.227 32.2196L15.3028 32.4578L15.227 32.2196ZM21.2045 30.3173L21.4085 30.1728L21.3029 30.0237L21.1287 30.0791L21.2045 30.3173ZM24.5587 35.0518L24.3547 35.1964L24.5587 35.0518ZM24.9425 35.5936L24.7385 35.7381L24.9304 36.0089L25.1377 35.7497L24.9425 35.5936ZM25.3572 35.0751L25.1619 34.919L25.3572 35.0751ZM29.1629 30.3172L29.244 30.0807L29.0776 30.0236L28.9676 30.1611L29.1629 30.3172ZM34.6958 32.2161L34.6146 32.4525L34.6958 32.2161ZM35.321 32.4306L35.2398 32.6671L35.5524 32.7744L35.5706 32.4444L35.321 32.4306ZM35.3573 31.7706L35.1077 31.7569L35.3573 31.7706ZM35.6829 25.8604L35.6125 25.6205L35.443 25.6703L35.4333 25.8466L35.6829 25.8604ZM41.4398 24.1705L41.3694 23.9306L41.4398 24.1705ZM42.0808 23.9823L42.1512 24.2222L42.4717 24.1281L42.2911 23.8471L42.0808 23.9823ZM41.7196 23.4204L41.5093 23.5555L41.7196 23.4204ZM38.4486 18.3313L38.2424 18.19L38.1486 18.3269L38.2383 18.4665L38.4486 18.3313ZM41.7114 13.5724L41.9176 13.7137L41.7114 13.5724ZM42.0691 13.0505L42.2753 13.1919L42.4542 12.931L42.159 12.8173L42.0691 13.0505ZM41.4787 12.8231L41.3889 13.0564L41.4787 12.8231ZM35.7031 10.5978H35.4531V10.7694L35.6132 10.8311L35.7031 10.5978ZM35.7031 4.12545H35.9531V3.79325L35.6339 3.88522L35.7031 4.12545ZM35.0647 4.30939L35.1339 4.54961H35.1339L35.0647 4.30939ZM29.1667 6.00868L28.975 6.16915L29.0795 6.29398L29.2359 6.24891L29.1667 6.00868ZM24.9667 2.54915L25.1584 2.38868L24.9667 2.15966L24.775 2.38868L24.9667 2.54915ZM21.3245 6.90021L21.1328 6.73974H21.1328L21.3245 6.90021ZM28.6089 6.90021L28.8006 6.73974L28.6089 6.90021ZM28.8178 7.14987L28.6261 7.31033L28.7306 7.43516L28.8871 7.39009L28.8178 7.14987ZM29.1307 7.05973L29.1999 7.29996L29.1307 7.05973ZM34.7031 5.45424H34.9531V5.12204L34.6339 5.21401L34.7031 5.45424ZM34.7031 11.2842H34.4531V11.4558L34.6132 11.5175L34.7031 11.2842ZM35.0234 11.4076L34.9335 11.6409H34.9335L35.0234 11.4076ZM40.5288 13.5287L40.735 13.6701L40.9139 13.4092L40.6187 13.2955L40.5288 13.5287ZM37.4361 18.0397L37.2299 17.8983V17.8983L37.4361 18.0397ZM37.2484 18.3135L37.0422 18.1721L36.9483 18.309L37.0381 18.4487L37.2484 18.3135ZM37.4279 18.5928L37.2176 18.7279L37.4279 18.5928ZM40.5172 23.3991L40.5876 23.639L40.9081 23.5449L40.7275 23.2639L40.5172 23.3991ZM35.0623 25.0004L34.9919 24.7605L35.0623 25.0004ZM34.7233 25.0999L34.6529 24.86L34.4834 24.9098L34.4737 25.0861L34.7233 25.0999ZM34.7039 25.4526L34.4543 25.4389L34.7039 25.4526ZM34.3952 31.0557L34.314 31.2921L34.6266 31.3994L34.6448 31.0694L34.3952 31.0557ZM29.1546 29.2571L29.2357 29.0206L29.1546 29.2571ZM28.8217 29.1429L28.9028 28.9064L28.7364 28.8493L28.6264 28.9867L28.8217 29.1429ZM28.6018 29.4177L28.4066 29.2616L28.6018 29.4177ZM24.9909 33.9321L24.7869 34.0766L24.9788 34.3474L25.1861 34.0882L24.9909 33.9321ZM21.8092 29.441L22.0132 29.2965H22.0132L21.8092 29.441ZM21.5979 29.1427L21.8019 28.9982L21.6962 28.8491L21.5221 28.9045L21.5979 29.1427ZM21.2496 29.2536L21.3254 29.4918H21.3254L21.2496 29.2536ZM15.5753 31.0593H15.3253V31.4012L15.6511 31.2975L15.5753 31.0593ZM15.5753 25.4792H15.8253V25.311L15.6695 25.2476L15.5753 25.4792ZM15.2637 25.3525L15.3578 25.1209H15.3578L15.2637 25.3525ZM9.50977 23.0128L9.30283 22.8725L9.12961 23.1281L9.4156 23.2444L9.50977 23.0128ZM12.4988 18.6029L12.2919 18.4627H12.2919L12.4988 18.6029ZM12.6868 18.3255L12.8938 18.4658L12.9878 18.3271L12.8952 18.1874L12.6868 18.3255ZM12.5017 18.0462L12.2933 18.1843H12.2933L12.5017 18.0462ZM9.5079 13.529L9.41652 13.2963L9.12867 13.4093L9.29951 13.6671L9.5079 13.529ZM14.913 11.4064L14.8217 11.1737H14.8217L14.913 11.4064ZM15.2115 11.2892L15.3029 11.5219L15.4522 11.4633L15.4611 11.3032L15.2115 11.2892ZM15.2295 10.969L15.4791 10.983L15.2295 10.969ZM15.5389 5.454L15.6118 5.21488L15.3071 5.12192L15.2892 5.43999L15.5389 5.454ZM20.7953 7.05752L20.7223 7.29664L20.7953 7.05752ZM21.112 7.15414L21.039 7.39326L21.1974 7.44157L21.3037 7.31461L21.112 7.15414ZM34.2878 33.0129L34.5202 32.9208L34.4281 32.6883L34.1957 32.7804L34.2878 33.0129ZM39.1184 45.2034L38.886 45.2955L39.1184 45.2034ZM33.3581 33.3813L33.266 33.1488L33.0336 33.2409L33.1257 33.4734L33.3581 33.3813ZM37.6246 44.148L37.4913 44.3595L38.1391 44.7678L37.857 44.0559L37.6246 44.148ZM32.7093 41.0502L32.576 41.2617L32.7093 41.0502ZM32.2065 40.7332L32.3398 40.5217L32.0883 40.3633L31.9753 40.6381L32.2065 40.7332ZM31.9803 41.283L31.7491 41.1878L31.9803 41.283ZM29.9397 46.2437L29.7049 46.3296L29.926 46.934L30.1709 46.3388L29.9397 46.2437ZM26.1264 35.8212L26.3611 35.7353L26.2752 35.5006L26.0405 35.5865L26.1264 35.8212ZM25.1872 36.1648L25.1013 35.9301L24.8666 36.016L24.9525 36.2507L25.1872 36.1648ZM29.4428 47.7961L29.2081 47.882L29.4428 47.7961ZM29.8851 49.005L29.6503 49.0909L29.8715 49.6953L30.1163 49.1001L29.8851 49.005ZM30.3748 47.8146L30.1436 47.7194L30.3748 47.8146ZM32.679 42.2131L32.8123 42.0016L32.5609 41.8431L32.4478 42.118L32.679 42.2131ZM38.387 45.8106L38.2537 46.022L38.387 45.8106ZM39.6826 46.6271L39.5493 46.8386L40.1971 47.2469L39.915 46.535L39.6826 46.6271ZM10.812 45.211L10.5781 45.1227H10.5781L10.812 45.211ZM15.4126 33.0205L15.5009 32.7866L15.267 32.6983L15.1787 32.9322L15.4126 33.0205ZM10.2706 46.6456L10.0367 46.5574L9.76597 47.2747L10.4075 46.8548L10.2706 46.6456ZM11.5536 45.8059L11.4167 45.5967H11.4167L11.5536 45.8059ZM17.0283 42.2228L17.2595 42.1277L17.1445 41.848L16.8914 42.0136L17.0283 42.2228ZM19.3286 47.8146L19.0974 47.9097L19.3286 47.8146ZM19.7943 48.9468L19.5631 49.0419L19.796 49.608L20.026 49.0407L19.7943 48.9468ZM20.2543 47.8122L20.486 47.9061L20.2543 47.8122ZM24.97 36.1809L25.2017 36.2748L25.2956 36.0431L25.0639 35.9492L24.97 36.1809ZM24.0433 35.8052L24.1372 35.5735L23.9055 35.4796L23.8116 35.7113L24.0433 35.8052ZM19.7876 46.3019L19.5564 46.397L19.7893 46.9631L20.0193 46.3958L19.7876 46.3019ZM17.723 41.283L17.4918 41.3781L17.723 41.283ZM17.4929 40.7236L17.7241 40.6285L17.6091 40.3488L17.356 40.5144L17.4929 40.7236ZM16.9868 41.0548L17.1237 41.264V41.264L16.9868 41.0548ZM12.289 44.1295L12.0551 44.0412L11.7844 44.7585L12.4259 44.3386L12.289 44.1295ZM16.3482 33.3736L16.5821 33.4619L16.6704 33.228L16.4365 33.1397L16.3482 33.3736ZM24.775 1.15168L25.1584 1.60971L25.5418 1.28877L25.1584 0.830742L24.775 1.15168ZM24.775 1.60971L25.1584 1.15168L24.775 0.830742L24.3916 1.28877L24.775 1.60971ZM20.962 6.16488L24.775 1.60971L24.3916 1.28877L20.5786 5.84394L20.962 6.16488ZM15.1483 4.55072L20.6973 6.24353L20.8432 5.76529L15.2942 4.07248L15.1483 4.55072ZM14.5388 4.36481L15.1483 4.55072L15.2942 4.07248L14.6847 3.88657L14.5388 4.36481ZM14.8257 4.77584L14.8614 4.13969L14.3622 4.11169L14.3265 4.74784L14.8257 4.77584ZM14.4986 10.6068L14.8257 4.77584L14.3265 4.74784L13.9994 10.5788L14.4986 10.6068ZM8.65807 13.0569L14.3404 10.8255L14.1576 10.3601L8.47531 12.5915L8.65807 13.0569ZM8.08237 13.283L8.65807 13.0569L8.47531 12.5915L7.89961 12.8176L8.08237 13.283ZM8.54106 13.4277L8.19938 12.9122L7.7826 13.1884L8.12428 13.704L8.54106 13.4277ZM11.6914 18.1812L8.54106 13.4277L8.12428 13.704L11.2746 18.4574L11.6914 18.1812ZM8.5425 23.1031L11.6899 18.4596L11.2761 18.179L8.12862 22.8225L8.5425 23.1031ZM8.19606 23.6142L8.5425 23.1031L8.12862 22.8225L7.78218 23.3337L8.19606 23.6142ZM8.65528 23.4749L8.08329 23.2423L7.89495 23.7055L8.46694 23.9381L8.65528 23.4749ZM14.6695 25.9205L8.65528 23.4749L8.46694 23.9381L14.4812 26.3837L14.6695 25.9205ZM14.8253 31.7431V26.1521H14.3253V31.7431H14.8253ZM14.8253 32.427V31.7431H14.3253V32.427H14.8253ZM15.1511 31.9814L14.4995 32.1887L14.6511 32.6652L15.3028 32.4578L15.1511 31.9814ZM21.1287 30.0791L15.1511 31.9814L15.3028 32.4578L21.2803 30.5556L21.1287 30.0791ZM24.7627 34.9073L21.4085 30.1728L21.0005 30.4619L24.3547 35.1964L24.7627 34.9073ZM25.1465 35.449L24.7627 34.9073L24.3547 35.1964L24.7385 35.7381L25.1465 35.449ZM25.1619 34.919L24.7473 35.4374L25.1377 35.7497L25.5524 35.2313L25.1619 34.919ZM28.9676 30.1611L25.1619 34.919L25.5524 35.2313L29.3581 30.4734L28.9676 30.1611ZM34.7769 31.9796L29.244 30.0807L29.0817 30.5537L34.6146 32.4525L34.7769 31.9796ZM35.4021 32.1942L34.7769 31.9796L34.6146 32.4525L35.2398 32.6671L35.4021 32.1942ZM35.1077 31.7569L35.0713 32.4169L35.5706 32.4444L35.6069 31.7844L35.1077 31.7569ZM35.4333 25.8466L35.1077 31.7569L35.6069 31.7844L35.9326 25.8741L35.4333 25.8466ZM41.3694 23.9306L35.6125 25.6205L35.7534 26.1003L41.5102 24.4103L41.3694 23.9306ZM42.0104 23.7424L41.3694 23.9306L41.5102 24.4103L42.1512 24.2222L42.0104 23.7424ZM41.5093 23.5555L41.8705 24.1175L42.2911 23.8471L41.9299 23.2852L41.5093 23.5555ZM38.2383 18.4665L41.5093 23.5555L41.9299 23.2852L38.6589 18.1962L38.2383 18.4665ZM41.5052 13.431L38.2424 18.19L38.6548 18.4727L41.9176 13.7137L41.5052 13.431ZM41.8629 12.9092L41.5052 13.431L41.9176 13.7137L42.2753 13.1919L41.8629 12.9092ZM41.3889 13.0564L41.9792 13.2838L42.159 12.8173L41.5686 12.5898L41.3889 13.0564ZM35.6132 10.8311L41.3889 13.0564L41.5686 12.5898L35.793 10.3645L35.6132 10.8311ZM35.4531 4.78984V10.5978H35.9531V4.78984H35.4531ZM35.4531 4.12545V4.78984H35.9531V4.12545H35.4531ZM35.1339 4.54961L35.7723 4.36568L35.6339 3.88522L34.9955 4.06916L35.1339 4.54961ZM29.2359 6.24891L35.1339 4.54961L34.9955 4.06916L29.0975 5.76845L29.2359 6.24891ZM25.1584 1.60971L28.975 6.16915L29.3584 5.84821L25.5418 1.28877L25.1584 1.60971ZM24.775 2.38868L21.1328 6.73974L21.5162 7.06068L25.1584 2.70962L24.775 2.38868ZM28.8006 6.73974L25.1584 2.38868L24.775 2.70962L28.4172 7.06068L28.8006 6.73974ZM29.0095 6.9894L28.8006 6.73974L28.4172 7.06068L28.6261 7.31033L29.0095 6.9894ZM29.0615 6.8195L28.7486 6.90964L28.8871 7.39009L29.1999 7.29996L29.0615 6.8195ZM34.6339 5.21401L29.0615 6.8195L29.1999 7.29996L34.7723 5.69447L34.6339 5.21401ZM34.9531 10.941V5.45424H34.4531V10.941H34.9531ZM34.9531 11.2842V10.941H34.4531V11.2842H34.9531ZM35.1132 11.1743L34.793 11.0509L34.6132 11.5175L34.9335 11.6409L35.1132 11.1743ZM40.6187 13.2955L35.1132 11.1743L34.9335 11.6409L40.4389 13.762L40.6187 13.2955ZM37.6423 18.181L40.735 13.6701L40.3226 13.3874L37.2299 17.8983L37.6423 18.181ZM37.4546 18.4549L37.6423 18.181L37.2299 17.8983L37.0422 18.1721L37.4546 18.4549ZM37.6382 18.4576L37.4587 18.1783L37.0381 18.4487L37.2176 18.7279L37.6382 18.4576ZM40.7275 23.2639L37.6382 18.4576L37.2176 18.7279L40.3069 23.5343L40.7275 23.2639ZM35.1327 25.2403L40.5876 23.639L40.4468 23.1592L34.9919 24.7605L35.1327 25.2403ZM34.7937 25.3398L35.1327 25.2403L34.9919 24.7605L34.6529 24.86L34.7937 25.3398ZM34.9535 25.4664L34.9729 25.1136L34.4737 25.0861L34.4543 25.4389L34.9535 25.4664ZM34.6448 31.0694L34.9535 25.4664L34.4543 25.4389L34.1456 31.0419L34.6448 31.0694ZM29.0734 29.4936L34.314 31.2921L34.4763 30.8192L29.2357 29.0206L29.0734 29.4936ZM28.7405 29.3793L29.0734 29.4936L29.2357 29.0206L28.9028 28.9064L28.7405 29.3793ZM28.797 29.5739L29.0169 29.299L28.6264 28.9867L28.4066 29.2616L28.797 29.5739ZM25.1861 34.0882L28.797 29.5739L28.4066 29.2616L24.7957 33.7759L25.1861 34.0882ZM21.6052 29.5855L24.7869 34.0766L25.1949 33.7875L22.0132 29.2965L21.6052 29.5855ZM21.3939 29.2873L21.6052 29.5855L22.0132 29.2965L21.8019 28.9982L21.3939 29.2873ZM21.3254 29.4918L21.6737 29.381L21.5221 28.9045L21.1738 29.0154L21.3254 29.4918ZM15.6511 31.2975L21.3254 29.4918L21.1738 29.0154L15.4995 30.8211L15.6511 31.2975ZM15.3253 25.8157V31.0593H15.8253V25.8157H15.3253ZM15.3253 25.4792V25.8157H15.8253V25.4792H15.3253ZM15.1695 25.5841L15.4812 25.7108L15.6695 25.2476L15.3578 25.1209L15.1695 25.5841ZM9.4156 23.2444L15.1695 25.5841L15.3578 25.1209L9.60394 22.7812L9.4156 23.2444ZM12.2919 18.4627L9.30283 22.8725L9.71671 23.153L12.7057 18.7432L12.2919 18.4627ZM12.4799 18.1853L12.2919 18.4627L12.7057 18.7432L12.8938 18.4658L12.4799 18.1853ZM12.2933 18.1843L12.4784 18.4636L12.8952 18.1874L12.7101 17.9081L12.2933 18.1843ZM9.29951 13.6671L12.2933 18.1843L12.7101 17.9081L9.71629 13.3909L9.29951 13.6671ZM14.8217 11.1737L9.41652 13.2963L9.59928 13.7617L15.0044 11.6391L14.8217 11.1737ZM15.1202 11.0565L14.8217 11.1737L15.0044 11.6391L15.3029 11.5219L15.1202 11.0565ZM14.9799 10.955L14.9619 11.2752L15.4611 11.3032L15.4791 10.983L14.9799 10.955ZM15.2892 5.43999L14.9799 10.955L15.4791 10.983L15.7885 5.468L15.2892 5.43999ZM20.8682 6.81839L15.6118 5.21488L15.4659 5.69312L20.7223 7.29664L20.8682 6.81839ZM21.1849 6.91502L20.8682 6.81839L20.7223 7.29664L21.039 7.39326L21.1849 6.91502ZM21.1328 6.73974L20.9203 6.99367L21.3037 7.31461L21.5163 7.06068L21.1328 6.73974ZM34.0554 33.105L38.886 45.2955L39.3509 45.1113L34.5202 32.9208L34.0554 33.105ZM33.4502 33.6137L34.3799 33.2453L34.1957 32.7804L33.266 33.1488L33.4502 33.6137ZM37.857 44.0559L33.5905 33.2892L33.1257 33.4734L37.3922 44.2401L37.857 44.0559ZM32.576 41.2617L37.4913 44.3595L37.7579 43.9365L32.8426 40.8387L32.576 41.2617ZM32.0732 40.9447L32.576 41.2617L32.8426 40.8387L32.3398 40.5217L32.0732 40.9447ZM32.2115 41.3781L32.4377 40.8284L31.9753 40.6381L31.7491 41.1878L32.2115 41.3781ZM30.1709 46.3388L32.2115 41.3781L31.7491 41.1878L29.7085 46.1486L30.1709 46.3388ZM25.8916 35.9071L29.7049 46.3296L30.1745 46.1578L26.3611 35.7353L25.8916 35.9071ZM25.2731 36.3996L26.2123 36.056L26.0405 35.5865L25.1013 35.9301L25.2731 36.3996ZM29.6776 47.7102L25.422 36.0789L24.9525 36.2507L29.2081 47.882L29.6776 47.7102ZM30.1199 48.9191L29.6776 47.7102L29.2081 47.882L29.6503 49.0909L30.1199 48.9191ZM30.1436 47.7194L29.6539 48.9099L30.1163 49.1001L30.606 47.9097L30.1436 47.7194ZM32.4478 42.118L30.1436 47.7194L30.606 47.9097L32.9102 42.3082L32.4478 42.118ZM38.5203 45.5991L32.8123 42.0016L32.5457 42.4246L38.2537 46.022L38.5203 45.5991ZM39.8159 46.4156L38.5203 45.5991L38.2537 46.022L39.5493 46.8386L39.8159 46.4156ZM38.886 45.2955L39.4502 46.7192L39.915 46.535L39.3509 45.1113L38.886 45.2955ZM11.0459 45.2993L15.6465 33.1088L15.1787 32.9322L10.5781 45.1227L11.0459 45.2993ZM10.5045 46.7339L11.0459 45.2993L10.5781 45.1227L10.0367 46.5574L10.5045 46.7339ZM11.4167 45.5967L10.1337 46.4365L10.4075 46.8548L11.6905 46.0151L11.4167 45.5967ZM16.8914 42.0136L11.4167 45.5967L11.6905 46.0151L17.1652 42.432L16.8914 42.0136ZM19.5598 47.7194L17.2595 42.1277L16.7971 42.3179L19.0974 47.9097L19.5598 47.7194ZM20.0255 48.8517L19.5598 47.7194L19.0974 47.9097L19.5631 49.0419L20.0255 48.8517ZM20.0227 47.7183L19.5627 48.8529L20.026 49.0407L20.486 47.9061L20.0227 47.7183ZM24.7383 36.087L20.0227 47.7183L20.486 47.9061L25.2017 36.2748L24.7383 36.087ZM23.9493 36.0369L24.8761 36.4126L25.0639 35.9492L24.1372 35.5735L23.9493 36.0369ZM20.0193 46.3958L24.275 35.8991L23.8116 35.7113L19.5559 46.2079L20.0193 46.3958ZM17.4918 41.3781L19.5564 46.397L20.0188 46.2068L17.9542 41.1878L17.4918 41.3781ZM17.2617 40.8187L17.4918 41.3781L17.9542 41.1878L17.7241 40.6285L17.2617 40.8187ZM17.1237 41.264L17.6298 40.9327L17.356 40.5144L16.8499 40.8456L17.1237 41.264ZM12.4259 44.3386L17.1237 41.264L16.8499 40.8456L12.1521 43.9203L12.4259 44.3386ZM16.1143 33.2853L12.0551 44.0412L12.5229 44.2177L16.5821 33.4619L16.1143 33.2853ZM15.3244 33.2544L16.26 33.6075L16.4365 33.1397L15.5009 32.7866L15.3244 33.2544ZM25.0817 27.1906C30.1506 27.1906 34.2231 23.2003 34.2231 18.3224H33.7231C33.7231 22.9115 29.8872 26.6906 25.0817 26.6906V27.1906ZM15.9404 18.3224C15.9404 23.2003 20.0129 27.1906 25.0817 27.1906V26.6906C20.2762 26.6906 16.4404 22.9115 16.4404 18.3224H15.9404ZM25.0817 9.45421C20.0129 9.45421 15.9404 13.4445 15.9404 18.3224H16.4404C16.4404 13.7333 20.2762 9.95421 25.0817 9.95421V9.45421ZM34.2231 18.3224C34.2231 13.4445 30.1506 9.45421 25.0817 9.45421V9.95421C29.8872 9.95421 33.7231 13.7333 33.7231 18.3224H34.2231ZM25.0817 28.1906C30.676 28.1906 35.2231 23.779 35.2231 18.3224H34.7231C34.7231 23.4898 30.4132 27.6906 25.0817 27.6906V28.1906ZM14.9404 18.3224C14.9404 23.779 19.4875 28.1906 25.0817 28.1906V27.6906C19.7503 27.6906 15.4404 23.4898 15.4404 18.3224H14.9404ZM25.0817 8.45421C19.4875 8.45421 14.9404 12.8658 14.9404 18.3224H15.4404C15.4404 13.155 19.7503 8.95421 25.0817 8.95421V8.45421ZM35.2231 18.3224C35.2231 12.8658 30.676 8.45421 25.0817 8.45421V8.95421C30.4132 8.95421 34.7231 13.155 34.7231 18.3224H35.2231Z" fill="#EEEEEE"/>
</svg>
