<svg width="35" height="41" viewBox="0 0 35 41" fill="none" xmlns="http://www.w3.org/2000/svg">
<path fill-rule="evenodd" clip-rule="evenodd" d="M17.426 1.00024C13.258 1.00024 10.3163 2.9283 8.55959 5.60563C6.81563 8.26353 6.2475 11.6433 6.7526 14.5825C7.44408 18.6063 10.9598 26.0987 17.0848 31.8168L17.4476 32.1555L17.789 31.7952C19.4655 30.0258 21.8329 27.0106 23.8578 23.7858C25.8714 20.5791 27.5988 17.084 27.912 14.3721C28.3326 10.7301 27.5664 7.3919 25.7492 4.95167C23.9238 2.50024 21.0696 1.00024 17.426 1.00024ZM7.73816 14.4132C7.27216 11.7015 7.80247 8.58237 9.39568 6.15422C10.9761 3.74549 13.6103 2.00024 17.426 2.00024C20.771 2.00024 23.3206 3.36456 24.9472 5.54892C26.5821 7.74447 27.3163 10.8135 26.9186 14.2574C26.6332 16.7288 25.0168 20.0595 23.0109 23.254C21.1518 26.2148 19.003 28.9888 17.4035 30.7411C11.6478 25.2044 8.37571 18.1232 7.73816 14.4132ZM8.25152 24.744C7.07867 24.9699 5.7375 25.5264 4.53656 26.3101C3.33755 27.0926 2.23876 28.1275 1.59343 29.3362C0.939505 30.5609 0.752244 31.9695 1.40923 33.4194C2.05523 34.8451 3.48584 36.2399 5.90797 37.5428C11.8292 40.7278 19.0539 40.7165 24.6779 39.174C27.4922 38.4021 29.942 37.2375 31.648 35.8626C33.3371 34.5014 34.398 32.8439 34.1554 31.0998C33.9109 29.3423 32.6854 27.9419 31.2827 26.9091C29.8713 25.8698 28.206 25.1459 26.9269 24.7567L26.6358 25.7134C27.833 26.0777 29.3896 26.7569 30.6898 27.7143C31.9986 28.6781 32.9744 29.8678 33.1649 31.2376C33.335 32.4604 32.6074 33.8051 31.0205 35.084C29.4504 36.3493 27.1366 37.4627 24.4134 38.2096C18.9626 39.7046 12.0168 39.6932 6.38169 36.6621C4.05714 35.4117 2.83924 34.1524 2.32008 33.0067C1.81191 31.8852 1.94282 30.805 2.47557 29.8071C3.01691 28.7932 3.97328 27.8718 5.08307 27.1475C6.19094 26.4246 7.41221 25.924 8.4406 25.726L8.25152 24.744ZM21.2322 11.0414C21.2322 13.0503 19.6036 14.6789 17.5947 14.6789C15.5858 14.6789 13.9573 13.0503 13.9573 11.0414C13.9573 9.03249 15.5858 7.40395 17.5947 7.40395C19.6036 7.40395 21.2322 9.03249 21.2322 11.0414ZM22.2322 11.0414C22.2322 13.6026 20.1559 15.6789 17.5947 15.6789C15.0335 15.6789 12.9573 13.6026 12.9573 11.0414C12.9573 8.48021 15.0335 6.40395 17.5947 6.40395C20.1559 6.40395 22.2322 8.48021 22.2322 11.0414Z" fill="#0048BB"/>
<path d="M8.55959 5.60563L8.97763 5.87993L8.55959 5.60563ZM6.7526 14.5825L6.25983 14.6672L6.7526 14.5825ZM17.0848 31.8168L16.7436 32.1823L17.0848 31.8168ZM17.4476 32.1555L17.1064 32.521L17.4692 32.8597L17.8106 32.4994L17.4476 32.1555ZM17.789 31.7952L17.426 31.4513L17.789 31.7952ZM23.8578 23.7858L24.2812 24.0517L23.8578 23.7858ZM27.912 14.3721L27.4153 14.3148L27.912 14.3721ZM25.7492 4.95167L26.1503 4.65304L25.7492 4.95167ZM9.39568 6.15422L8.97763 5.87993L9.39568 6.15422ZM7.73816 14.4132L8.23094 14.3285L7.73816 14.4132ZM24.9472 5.54892L24.5462 5.84755V5.84755L24.9472 5.54892ZM26.9186 14.2574L26.4219 14.2001V14.2001L26.9186 14.2574ZM23.0109 23.254L22.5875 22.9881L23.0109 23.254ZM17.4035 30.7411L17.0569 31.1015L17.4268 31.4573L17.7728 31.0782L17.4035 30.7411ZM4.53656 26.3101L4.2633 25.8914V25.8914L4.53656 26.3101ZM8.25152 24.744L8.74251 24.6495L8.64797 24.1585L8.15699 24.2531L8.25152 24.744ZM1.59343 29.3362L1.15236 29.1007H1.15236L1.59343 29.3362ZM1.40923 33.4194L0.9538 33.6258H0.9538L1.40923 33.4194ZM5.90797 37.5428L5.67111 37.9831L5.90797 37.5428ZM24.6779 39.174L24.8102 39.6562L24.6779 39.174ZM31.648 35.8626L31.3342 35.4733H31.3342L31.648 35.8626ZM34.1554 31.0998L33.6601 31.1687L34.1554 31.0998ZM31.2827 26.9091L31.5792 26.5064V26.5064L31.2827 26.9091ZM26.9269 24.7567L27.0724 24.2783L26.5941 24.1328L26.4485 24.6111L26.9269 24.7567ZM26.6358 25.7134L26.1574 25.5678L26.0119 26.0462L26.4902 26.1917L26.6358 25.7134ZM30.6898 27.7143L30.9862 27.3117L30.6898 27.7143ZM33.1649 31.2376L33.6601 31.1687L33.1649 31.2376ZM31.0205 35.084L30.7067 34.6947L31.0205 35.084ZM24.4134 38.2096L24.5457 38.6918L24.4134 38.2096ZM6.38169 36.6621L6.61855 36.2217H6.61855L6.38169 36.6621ZM2.32008 33.0067L2.77551 32.8003L2.77551 32.8003L2.32008 33.0067ZM2.47557 29.8071L2.0345 29.5716H2.0345L2.47557 29.8071ZM5.08307 27.1475L5.35633 27.5663L5.08307 27.1475ZM8.4406 25.726L8.53513 26.217L9.02611 26.1225L8.93158 25.6315L8.4406 25.726ZM8.97763 5.87993C10.6462 3.33686 13.4342 1.50024 17.426 1.50024V0.500244C13.0818 0.500244 9.98633 2.51975 8.14154 5.33133L8.97763 5.87993ZM7.24538 14.4979C6.75983 11.6723 7.30906 8.42293 8.97763 5.87993L8.14154 5.33133C6.3222 8.10413 5.73518 11.6142 6.25983 14.6672L7.24538 14.4979ZM17.426 31.4513C11.3727 25.8001 7.91655 18.4035 7.24538 14.4979L6.25983 14.6672C6.97161 18.8092 10.5469 26.3973 16.7436 32.1823L17.426 31.4513ZM17.7888 31.79L17.426 31.4513L16.7436 32.1823L17.1064 32.521L17.7888 31.79ZM17.426 31.4513L17.0847 31.8116L17.8106 32.4994L18.1519 32.1391L17.426 31.4513ZM23.4344 23.5199C21.4246 26.7205 19.077 29.7089 17.426 31.4513L18.1519 32.1391C19.8539 30.3428 22.2411 27.3007 24.2812 24.0517L23.4344 23.5199ZM27.4153 14.3148C27.116 16.9064 25.4441 20.3194 23.4344 23.5199L24.2812 24.0517C26.2987 20.8388 28.0816 17.2615 28.4087 14.4295L27.4153 14.3148ZM25.3482 5.25029C27.0742 7.56815 27.8244 10.7718 27.4153 14.3148L28.4087 14.4295C28.8407 10.6885 28.0585 7.21565 26.1503 4.65304L25.3482 5.25029ZM17.426 1.50024C20.9203 1.50024 23.6222 2.93243 25.3482 5.25029L26.1503 4.65304C24.2253 2.06805 21.2188 0.500244 17.426 0.500244V1.50024ZM8.97763 5.87993C7.30906 8.42293 6.75983 11.6723 7.24538 14.4979L8.23094 14.3285C7.78449 11.7306 8.29588 8.74181 9.81372 6.42852L8.97763 5.87993ZM17.426 1.50024C13.4342 1.50024 10.6462 3.33686 8.97763 5.87993L9.81372 6.42852C11.306 4.15412 13.7865 2.50024 17.426 2.50024V1.50024ZM25.3482 5.25029C23.6222 2.93243 20.9203 1.50024 17.426 1.50024V2.50024C20.6217 2.50024 23.019 3.79669 24.5462 5.84755L25.3482 5.25029ZM27.4153 14.3148C27.8244 10.7718 27.0742 7.56815 25.3482 5.25029L24.5462 5.84755C26.09 7.9208 26.8081 10.8553 26.4219 14.2001L27.4153 14.3148ZM23.4344 23.5199C25.4441 20.3194 27.116 16.9064 27.4153 14.3148L26.4219 14.2001C26.1503 16.5511 24.5896 19.7997 22.5875 22.9881L23.4344 23.5199ZM17.7728 31.0782C19.3938 29.3024 21.5604 26.5043 23.4344 23.5199L22.5875 22.9881C20.7431 25.9254 18.6122 28.6753 17.0342 30.404L17.7728 31.0782ZM7.24538 14.4979C7.90301 18.3247 11.2333 25.4995 17.0569 31.1015L17.7501 30.3808C12.0622 24.9093 8.84841 17.9217 8.23094 14.3285L7.24538 14.4979ZM4.80981 26.7288C5.96422 25.9755 7.24544 25.4469 8.34606 25.235L8.15699 24.2531C6.9119 24.4928 5.51077 25.0773 4.2633 25.8914L4.80981 26.7288ZM2.0345 29.5716C2.62783 28.4604 3.6554 27.4822 4.80981 26.7288L4.2633 25.8914C3.0197 26.7029 1.84969 27.7946 1.15236 29.1007L2.0345 29.5716ZM1.86466 33.213C1.28216 31.9275 1.44105 30.6832 2.0345 29.5716L1.15236 29.1007C0.437963 30.4387 0.222324 32.0114 0.9538 33.6258L1.86466 33.213ZM6.14483 37.1024C3.77144 35.8258 2.44722 34.4987 1.86466 33.213L0.9538 33.6258C1.66324 35.1914 3.20023 36.654 5.67111 37.9831L6.14483 37.1024ZM24.5457 38.6918C19.0082 40.2106 11.923 40.2105 6.14483 37.1024L5.67111 37.9831C11.7355 41.2452 19.0996 41.2224 24.8102 39.6562L24.5457 38.6918ZM31.3342 35.4733C29.6962 36.7934 27.3144 37.9324 24.5457 38.6918L24.8102 39.6562C27.67 38.8718 30.1878 37.6815 31.9617 36.2519L31.3342 35.4733ZM33.6601 31.1687C33.8664 32.6516 32.9729 34.1527 31.3342 35.4733L31.9617 36.2519C33.7013 34.85 34.9296 33.0362 34.6506 31.0309L33.6601 31.1687ZM30.9862 27.3117C32.3422 28.3101 33.4426 29.6052 33.6601 31.1687L34.6506 31.0309C34.3791 29.0794 33.0287 27.5738 31.5792 26.5064L30.9862 27.3117ZM26.7813 25.235C28.0195 25.6118 29.6305 26.3134 30.9862 27.3117L31.5792 26.5064C30.1122 25.4262 28.3926 24.68 27.0724 24.2783L26.7813 25.235ZM27.1141 25.8589L27.4052 24.9022L26.4485 24.6111L26.1574 25.5678L27.1141 25.8589ZM30.9862 27.3117C29.6305 26.3134 28.0195 25.6118 26.7813 25.235L26.4902 26.1917C27.6465 26.5435 29.1487 27.2005 30.3933 28.1169L30.9862 27.3117ZM33.6601 31.1687C33.4426 29.6052 32.3422 28.3101 30.9862 27.3117L30.3933 28.1169C31.655 29.046 32.5061 30.1304 32.6697 31.3065L33.6601 31.1687ZM31.3342 35.4733C32.973 34.1526 33.8664 32.6515 33.6601 31.1687L32.6697 31.3065C32.8036 32.2692 32.2418 33.4576 30.7067 34.6947L31.3342 35.4733ZM24.5457 38.6918C27.3144 37.9324 29.6962 36.7934 31.3342 35.4733L30.7067 34.6947C29.2047 35.9052 26.9588 36.993 24.2812 37.7274L24.5457 38.6918ZM6.14483 37.1024C11.923 40.2105 19.0082 40.2106 24.5457 38.6918L24.2812 37.7274C18.9169 39.1987 12.1106 39.176 6.61855 36.2217L6.14483 37.1024ZM1.86466 33.213C2.44722 34.4987 3.77143 35.8258 6.14483 37.1024L6.61855 36.2217C4.34284 34.9976 3.23127 33.8061 2.77551 32.8003L1.86466 33.213ZM2.0345 29.5716C1.44101 30.6832 1.28219 31.9276 1.86466 33.213L2.77551 32.8003C2.34162 31.8427 2.44463 30.9267 2.91664 30.0426L2.0345 29.5716ZM4.80981 26.7288C3.65539 27.4822 2.62783 28.4604 2.0345 29.5716L2.91664 30.0426C3.40599 29.1261 4.29116 28.2614 5.35633 27.5663L4.80981 26.7288ZM8.34606 25.235C7.24544 25.4469 5.96422 25.9755 4.80981 26.7288L5.35633 27.5663C6.41765 26.8737 7.57897 26.4011 8.53513 26.217L8.34606 25.235ZM7.76054 24.8386L7.94961 25.8205L8.93158 25.6315L8.74251 24.6495L7.76054 24.8386ZM17.5947 15.1789C19.8798 15.1789 21.7322 13.3265 21.7322 11.0414H20.7322C20.7322 12.7742 19.3275 14.1789 17.5947 14.1789V15.1789ZM13.4573 11.0414C13.4573 13.3265 15.3097 15.1789 17.5947 15.1789V14.1789C15.862 14.1789 14.4573 12.7742 14.4573 11.0414H13.4573ZM17.5947 6.90395C15.3097 6.90395 13.4573 8.75635 13.4573 11.0414H14.4573C14.4573 9.30864 15.862 7.90395 17.5947 7.90395V6.90395ZM21.7322 11.0414C21.7322 8.75635 19.8798 6.90395 17.5947 6.90395V7.90395C19.3275 7.90395 20.7322 9.30864 20.7322 11.0414H21.7322ZM17.5947 16.1789C20.4321 16.1789 22.7322 13.8787 22.7322 11.0414H21.7322C21.7322 13.3265 19.8798 15.1789 17.5947 15.1789V16.1789ZM12.4573 11.0414C12.4573 13.8787 14.7574 16.1789 17.5947 16.1789V15.1789C15.3097 15.1789 13.4573 13.3265 13.4573 11.0414H12.4573ZM17.5947 5.90395C14.7574 5.90395 12.4573 8.20407 12.4573 11.0414H13.4573C13.4573 8.75635 15.3097 6.90395 17.5947 6.90395V5.90395ZM22.7322 11.0414C22.7322 8.20407 20.4321 5.90395 17.5947 5.90395V6.90395C19.8798 6.90395 21.7322 8.75635 21.7322 11.0414H22.7322Z" fill="#507AB9"/>
</svg>
