<svg width="158" height="43" viewBox="0 0 158 43" fill="none" xmlns="http://www.w3.org/2000/svg">
<path d="M13.504 32.424H25.702V42H0.85V1.644H13.504V32.424ZM49.349 0.959998C53.149 0.959998 56.626 1.853 59.78 3.639C62.934 5.387 65.423 7.838 67.247 10.992C69.109 14.146 70.04 17.699 70.04 21.651C70.04 25.603 69.109 29.156 67.247 32.31C65.423 35.464 62.915 37.934 59.723 39.72C56.569 41.506 53.111 42.399 49.349 42.399C45.549 42.399 42.053 41.506 38.861 39.72C35.707 37.934 33.199 35.464 31.337 32.31C29.475 29.156 28.544 25.603 28.544 21.651C28.544 17.699 29.475 14.146 31.337 10.992C33.199 7.838 35.707 5.387 38.861 3.639C42.053 1.853 45.549 0.959998 49.349 0.959998ZM49.349 12.645C46.803 12.645 44.846 13.462 43.478 15.096C42.11 16.692 41.426 18.877 41.426 21.651C41.426 24.387 42.11 26.572 43.478 28.206C44.846 29.802 46.803 30.6 49.349 30.6C51.857 30.6 53.795 29.802 55.163 28.206C56.531 26.572 57.215 24.387 57.215 21.651C57.215 18.877 56.531 16.692 55.163 15.096C53.795 13.462 51.857 12.645 49.349 12.645ZM93.8709 1.245C99.1529 1.245 103.447 2.518 106.753 5.064C110.097 7.61 112.073 11.068 112.681 15.438H99.3429C98.8489 14.64 98.1459 14.032 97.2339 13.614C96.3219 13.158 95.2199 12.93 93.9279 12.93C91.4959 12.93 89.6149 13.728 88.2849 15.324C86.9549 16.882 86.2899 19.029 86.2899 21.765C86.2899 24.919 87.0309 27.275 88.5129 28.833C89.9949 30.391 92.2749 31.17 95.3529 31.17C98.2789 31.17 100.635 29.992 102.421 27.636H92.3319V18.687H112.909V31.341C111.161 34.343 108.748 36.927 105.67 39.093C102.592 41.221 98.6969 42.285 93.9849 42.285C89.8049 42.285 86.1569 41.43 83.0409 39.72C79.9629 37.972 77.5879 35.54 75.9159 32.424C74.2819 29.308 73.4649 25.755 73.4649 21.765C73.4649 17.775 74.2819 14.222 75.9159 11.106C77.5879 7.99 79.9629 5.577 83.0409 3.867C86.1189 2.119 89.7289 1.245 93.8709 1.245ZM137.131 0.959998C140.931 0.959998 144.408 1.853 147.562 3.639C150.716 5.387 153.205 7.838 155.029 10.992C156.891 14.146 157.822 17.699 157.822 21.651C157.822 25.603 156.891 29.156 155.029 32.31C153.205 35.464 150.697 37.934 147.505 39.72C144.351 41.506 140.893 42.399 137.131 42.399C133.331 42.399 129.835 41.506 126.643 39.72C123.489 37.934 120.981 35.464 119.119 32.31C117.257 29.156 116.326 25.603 116.326 21.651C116.326 17.699 117.257 14.146 119.119 10.992C120.981 7.838 123.489 5.387 126.643 3.639C129.835 1.853 133.331 0.959998 137.131 0.959998ZM137.131 12.645C134.585 12.645 132.628 13.462 131.26 15.096C129.892 16.692 129.208 18.877 129.208 21.651C129.208 24.387 129.892 26.572 131.26 28.206C132.628 29.802 134.585 30.6 137.131 30.6C139.639 30.6 141.577 29.802 142.945 28.206C144.313 26.572 144.997 24.387 144.997 21.651C144.997 18.877 144.313 16.692 142.945 15.096C141.577 13.462 139.639 12.645 137.131 12.645Z" fill="#4D5254"/>
</svg>
