<svg width="50" height="50" viewBox="0 0 50 50" fill="none" xmlns="http://www.w3.org/2000/svg">
<g clip-path="url(#clip0_75_209)">
<path d="M36.225 38.025C35.9406 38.0272 35.6591 37.9675 35.4 37.85C34.8813 37.6313 34.4687 37.2187 34.25 36.7L33.3 34.4C33.2514 34.2797 33.2514 34.1452 33.3 34.025C33.3252 33.9631 33.3624 33.9069 33.4097 33.8596C33.4569 33.8124 33.5131 33.7751 33.575 33.75C33.6382 33.7217 33.7059 33.7047 33.775 33.7C33.8776 33.7004 33.9778 33.7316 34.0624 33.7895C34.1471 33.8475 34.2125 33.9295 34.25 34.025L35.2 36.325C35.3179 36.593 35.532 36.8071 35.8 36.925C35.9369 36.972 36.0803 36.9973 36.225 37C36.3701 37.0016 36.5142 36.9762 36.65 36.925L39.15 35.9C39.2851 35.8453 39.4079 35.764 39.5109 35.6609C39.614 35.5578 39.6953 35.4351 39.75 35.3C39.8124 35.167 39.8448 35.0219 39.8448 34.875C39.8448 34.7281 39.8124 34.583 39.75 34.45L38.8 32.15C38.7569 32.0386 38.7533 31.9159 38.7897 31.8022C38.826 31.6884 38.9003 31.5906 39 31.525C40.5914 30.4587 41.9587 29.0913 43.025 27.5C43.0712 27.4298 43.1344 27.3724 43.2087 27.333C43.283 27.2937 43.366 27.2737 43.45 27.275C43.5191 27.2797 43.5868 27.2967 43.65 27.325L45.95 28.275C46.0858 28.3262 46.2299 28.3516 46.375 28.35C46.5929 28.3488 46.8057 28.2844 46.9877 28.1646C47.1696 28.0447 47.3129 27.8747 47.4 27.675L48.45 25.175C48.505 25.0421 48.533 24.8997 48.5326 24.7559C48.5321 24.6121 48.5032 24.4698 48.4474 24.3373C48.3916 24.2047 48.31 24.0846 48.2075 23.9838C48.105 23.883 47.9835 23.8035 47.85 23.75L45.55 22.8C45.4425 22.7519 45.3545 22.669 45.3 22.5647C45.2455 22.4603 45.2279 22.3406 45.25 22.225C45.6251 20.3519 45.6251 18.4231 45.25 16.55C45.2235 16.4341 45.2392 16.3126 45.2941 16.2072C45.3491 16.1019 45.4398 16.0195 45.55 15.975L47.85 15.025C47.9851 14.9703 48.1079 14.889 48.2109 14.7859C48.314 14.6828 48.3953 14.5601 48.45 14.425C48.5125 14.292 48.5448 14.1469 48.5448 14C48.5448 13.8531 48.5125 13.708 48.45 13.575L47.425 11.075C47.3703 10.9399 47.289 10.8171 47.1859 10.714C47.0829 10.611 46.9601 10.5297 46.825 10.475C46.5504 10.3757 46.2496 10.3757 45.975 10.475L43.675 11.425C43.6129 11.4562 43.5446 11.4733 43.475 11.475C43.3912 11.4747 43.3088 11.454 43.2348 11.4148C43.1608 11.3757 43.0974 11.3191 43.05 11.25C41.9837 9.65864 40.6164 8.29129 39.025 7.22498C38.9263 7.15865 38.8544 7.05929 38.8223 6.94473C38.7902 6.83018 38.8001 6.70794 38.85 6.59998L39.8 4.29998C39.9125 4.02781 39.9125 3.72214 39.8 3.44998C39.6906 3.19072 39.4843 2.98441 39.225 2.87498L36.725 1.82498C36.5706 1.77939 36.4109 1.75418 36.25 1.74998C36.0321 1.75116 35.8193 1.81557 35.6374 1.9354C35.4554 2.05522 35.3122 2.2253 35.225 2.42498L34.275 4.72498C34.2331 4.8174 34.1667 4.89656 34.0829 4.95386C33.9992 5.01116 33.9013 5.04441 33.8 5.04998H33.7C32.7604 4.87181 31.8064 4.77976 30.85 4.77498C29.9018 4.77862 28.9561 4.87069 28.025 5.04998C27.975 5.04998 27.95 5.07498 27.9 5.07498C27.8006 5.07409 27.7039 5.04234 27.6233 4.98412C27.5427 4.92591 27.4821 4.84409 27.45 4.74998L26.5 2.42498C26.4453 2.28986 26.364 2.16712 26.2609 2.06405C26.1579 1.96097 26.0351 1.87967 25.9 1.82498C25.7631 1.77797 25.6197 1.75266 25.475 1.74998C25.3299 1.74835 25.1858 1.77379 25.05 1.82498L22.55 2.84998C22.417 2.90406 22.2959 2.98384 22.1937 3.08476C22.0916 3.18567 22.0103 3.30574 21.9546 3.43809C21.8988 3.57044 21.8698 3.71248 21.869 3.85608C21.8682 3.99968 21.8957 4.14203 21.95 4.27498L22.9 6.57498C22.9431 6.68633 22.9468 6.80908 22.9104 6.92279C22.874 7.03651 22.7997 7.13433 22.7 7.19998C21.1087 8.26629 19.7413 9.63364 18.675 11.225C18.6288 11.2952 18.5656 11.3526 18.4913 11.3919C18.4171 11.4313 18.3341 11.4512 18.25 11.45C18.1809 11.4452 18.1132 11.4283 18.05 11.4L15.75 10.45C15.6137 10.4009 15.4699 10.3756 15.325 10.375C15.1799 10.3734 15.0358 10.3988 14.9 10.45C14.6388 10.5653 14.4264 10.7689 14.3 11.025L13.25 13.525C13.1507 13.7996 13.1507 14.1003 13.25 14.375C13.3679 14.643 13.582 14.8571 13.85 14.975L16.15 15.925C16.2138 15.9495 16.2718 15.9868 16.3206 16.0346C16.3693 16.0824 16.4078 16.1397 16.4335 16.203C16.4593 16.2662 16.4718 16.3341 16.4704 16.4024C16.4689 16.4706 16.4535 16.5379 16.425 16.6C16.3875 16.6955 16.3221 16.7775 16.2374 16.8355C16.1528 16.8934 16.0526 16.9246 15.95 16.925C15.8809 16.9202 15.8132 16.9033 15.75 16.875L13.45 15.925C12.9313 15.7063 12.5187 15.2936 12.3 14.775C12.1887 14.5186 12.1312 14.242 12.1312 13.9625C12.1312 13.6829 12.1887 13.4064 12.3 13.15L13.35 10.65C13.5674 10.1371 13.9768 9.72963 14.4907 9.51472C15.0046 9.29981 15.5822 9.29452 16.1 9.49998L18 10.3L18.225 9.99998C19.128 8.79694 20.197 7.72797 21.4 6.82498L21.7 6.59998L20.9 4.69998C20.7887 4.44357 20.7312 4.16702 20.7312 3.88748C20.7312 3.60794 20.7887 3.33139 20.9 3.07498C21.1187 2.55631 21.5313 2.14362 22.05 1.92498L24.55 0.89998C24.8061 0.794892 25.0804 0.741278 25.3571 0.742199C25.6339 0.743121 25.9079 0.79856 26.1632 0.90535C26.4186 1.01214 26.6504 1.16819 26.8455 1.36459C27.0405 1.56099 27.195 1.79388 27.3 2.04998L28.1 3.94998L28.475 3.89998C29.2203 3.79201 29.972 3.73355 30.725 3.72498C31.4786 3.72108 32.2311 3.77962 32.975 3.89998L33.35 3.94998L34.15 2.04998C34.3082 1.66343 34.5784 1.33305 34.9259 1.10137C35.2735 0.869693 35.6824 0.747313 36.1 0.74998C36.3738 0.748952 36.6452 0.799851 36.9 0.89998L39.4 1.94998C39.9187 2.16862 40.3314 2.58131 40.55 3.09998C40.6613 3.35639 40.7188 3.63294 40.7188 3.91248C40.7188 4.19202 40.6613 4.46857 40.55 4.72498L39.75 6.62498L40.05 6.84998C41.253 7.753 42.322 8.82196 43.225 10.025L43.45 10.325L45.35 9.52498C45.6061 9.41989 45.8804 9.36628 46.1572 9.3672C46.4339 9.36812 46.7079 9.42356 46.9632 9.53035C47.2186 9.63714 47.4504 9.79319 47.6455 9.98959C47.8405 10.186 47.995 10.4189 48.1 10.675L49.125 13.175C49.2363 13.4314 49.2938 13.7079 49.2938 13.9875C49.2938 14.267 49.2363 14.5436 49.125 14.8C48.9064 15.3186 48.4937 15.7313 47.975 15.95L46.075 16.75L46.125 17.125C46.35 18.6165 46.35 20.1334 46.125 21.625L46.075 22L47.975 22.8C48.4937 23.0186 48.9064 23.4313 49.125 23.95C49.2363 24.2064 49.2938 24.4829 49.2938 24.7625C49.2938 25.042 49.2363 25.3186 49.125 25.575L48.075 28.075C47.9168 28.4615 47.6466 28.7919 47.2991 29.0236C46.9516 29.2553 46.5427 29.3776 46.125 29.375C45.8513 29.376 45.5798 29.3251 45.325 29.225L43.425 28.425L43.2 28.725C42.297 29.928 41.2281 30.997 40.025 31.9L39.725 32.125L40.525 34.025C40.6363 34.2814 40.6938 34.5579 40.6938 34.8375C40.6938 35.117 40.6363 35.3936 40.525 35.65C40.3064 36.1687 39.8937 36.5813 39.375 36.8L36.875 37.825C36.775 37.975 36.5 38.025 36.225 38.025Z" fill="#EEEEEE" stroke="#EEEEEE" stroke-width="0.5"/>
<path d="M30.9 27.0998C30.7648 27.1006 30.6346 27.0489 30.5367 26.9557C30.4388 26.8624 30.3808 26.7349 30.375 26.5998C30.3726 26.5303 30.3846 26.4611 30.4105 26.3965C30.4363 26.3319 30.4753 26.2734 30.525 26.2248C30.6173 26.1306 30.7431 26.0767 30.875 26.0748C32.652 26.0682 34.3535 25.3559 35.6053 24.0947C36.8571 22.8336 37.5566 21.1268 37.55 19.3498C37.5434 17.5729 36.8311 15.8713 35.57 14.6195C34.3088 13.3677 32.602 12.6682 30.825 12.6748H30.775C29.8936 12.6747 29.0212 12.8517 28.2095 13.1953C27.3979 13.5388 26.6635 14.042 26.05 14.6748C25.4309 15.2999 24.942 16.0415 24.6115 16.8569C24.2811 17.6723 24.1157 18.5451 24.125 19.4248C24.1275 19.4943 24.1154 19.5636 24.0896 19.6281C24.0637 19.6927 24.0247 19.7512 23.975 19.7998C23.8827 19.894 23.7569 19.9479 23.625 19.9498C23.5573 19.9532 23.4896 19.9428 23.426 19.9192C23.3624 19.8956 23.3043 19.8593 23.2552 19.8125C23.2061 19.7657 23.167 19.7095 23.1403 19.6471C23.1136 19.5847 23.0999 19.5176 23.1 19.4498C23.0934 18.4353 23.2867 17.4295 23.6689 16.4897C24.051 15.55 24.6145 14.6947 25.3272 13.9727C26.0399 13.2507 26.8878 12.6762 27.8226 12.2819C28.7573 11.8876 29.7605 11.6813 30.775 11.6748H30.825C32.8605 11.676 34.8133 12.48 36.2596 13.9123C37.7059 15.3445 38.5289 17.2894 38.55 19.3248C38.5633 21.3693 37.7656 23.3357 36.3317 24.7931C34.8977 26.2505 32.9445 27.08 30.9 27.0998Z" fill="#EEEEEE" stroke="#EEEEEE" stroke-width="0.5"/>
<path d="M13.8 49.275C13.5781 49.2744 13.3585 49.2298 13.154 49.1438C12.9494 49.0578 12.7639 48.9322 12.6082 48.7741C12.4524 48.6161 12.3296 48.4287 12.2466 48.2229C12.1637 48.0171 12.1224 47.7969 12.125 47.575V46.2L11.75 46.1C10.8089 45.8555 9.90798 45.4766 9.07501 44.975L8.75001 44.775L7.77501 45.75C7.61954 45.9106 7.43292 46.0378 7.22658 46.1238C7.02024 46.2097 6.79852 46.2527 6.57501 46.25C6.35182 46.2504 6.13078 46.2064 5.92476 46.1206C5.71875 46.0347 5.53187 45.9088 5.37501 45.75L3.97501 44.35C3.66264 44.0337 3.48748 43.607 3.48748 43.1625C3.48748 42.718 3.66264 42.2913 3.97501 41.975L4.95001 41L4.75001 40.675C4.26905 39.8317 3.89134 38.9336 3.62501 38L3.52501 37.625H2.17501C1.72434 37.6243 1.29232 37.445 0.973655 37.1264C0.654986 36.8077 0.475667 36.3757 0.475006 35.925V34C0.475667 33.5493 0.654986 33.1173 0.973655 32.7986C1.29232 32.48 1.72434 32.3007 2.17501 32.3H3.57501L3.67501 31.925C3.91952 30.9839 4.29841 30.083 4.80001 29.25L5.00001 28.925L4.02501 27.95C3.71264 27.6337 3.53748 27.207 3.53748 26.7625C3.53748 26.318 3.71264 25.8913 4.02501 25.575L5.42501 24.175C5.58048 24.0144 5.7671 23.8872 5.97343 23.8012C6.17977 23.7153 6.40149 23.6723 6.62501 23.675C6.84819 23.6746 7.06923 23.7186 7.27525 23.8044C7.48127 23.8903 7.66815 24.0162 7.82501 24.175L8.80001 25.15L9.12501 24.95C9.96831 24.469 10.8664 24.0913 11.8 23.825L12.175 23.725V22.325C12.1743 21.8782 12.3498 21.4492 12.6633 21.131C12.9769 20.8127 13.4033 20.6309 13.85 20.625H15.825C16.2757 20.6257 16.7077 20.805 17.0264 21.1236C17.345 21.4423 17.5243 21.8743 17.525 22.325V23.725L17.9 23.825C18.8411 24.0695 19.742 24.4484 20.575 24.95L20.9 25.15L21.875 24.175C22.0305 24.0144 22.2171 23.8872 22.4234 23.8012C22.6298 23.7153 22.8515 23.6723 23.075 23.675C23.2982 23.6746 23.5192 23.7186 23.7252 23.8044C23.9313 23.8903 24.1181 24.0162 24.275 24.175L25.675 25.575C25.8356 25.7305 25.9628 25.9171 26.0488 26.1234C26.1348 26.3298 26.1777 26.5515 26.175 26.775C26.1754 26.9982 26.1314 27.2192 26.0456 27.4252C25.9597 27.6313 25.8338 27.8181 25.675 27.975L24.7 28.95L24.9 29.275C25.381 30.1183 25.7587 31.0164 26.025 31.95L26.125 32.325H27.525C27.9757 32.3257 28.4077 32.505 28.7264 32.8237C29.045 33.1423 29.2243 33.5743 29.225 34.025V36C29.2243 36.4507 29.045 36.8827 28.7264 37.2014C28.4077 37.52 27.9757 37.6993 27.525 37.7H26L25.9 38.075C25.6555 39.0161 25.2766 39.917 24.775 40.75L24.575 41.075L25.55 42.05C25.7106 42.2055 25.8378 42.3921 25.9238 42.5984C26.0098 42.8048 26.0527 43.0265 26.05 43.25C26.0504 43.4732 26.0064 43.6942 25.9206 43.9002C25.8347 44.1063 25.7088 44.2931 25.55 44.45L24.15 45.85C23.9945 46.0106 23.8079 46.1378 23.6016 46.2238C23.3952 46.3097 23.1735 46.3527 22.95 46.35C22.7268 46.3504 22.5058 46.3064 22.2998 46.2206C22.0937 46.1347 21.9069 46.0088 21.75 45.85L20.775 44.875L20.5 45C19.6567 45.481 18.7586 45.8587 17.825 46.125L17.45 46.225V47.625C17.4493 48.0757 17.27 48.5077 16.9514 48.8264C16.6327 49.145 16.2007 49.3243 15.75 49.325H13.8V49.275ZM8.67501 43.625C8.78343 43.6235 8.88917 43.6587 8.97501 43.725C10.1148 44.4812 11.3871 45.0156 12.725 45.3C12.8442 45.3181 12.9529 45.3786 13.031 45.4705C13.1091 45.5624 13.1514 45.6794 13.15 45.8V47.6C13.1493 47.6855 13.1657 47.7704 13.1981 47.8495C13.2306 47.9287 13.2784 48.0006 13.3389 48.0611C13.3994 48.1216 13.4713 48.1694 13.5505 48.2019C13.6296 48.2343 13.7145 48.2507 13.8 48.25H15.775C15.8605 48.2507 15.9454 48.2343 16.0245 48.2019C16.1037 48.1694 16.1756 48.1216 16.2361 48.0611C16.2966 48.0006 16.3445 47.9287 16.3769 47.8495C16.4093 47.7704 16.4257 47.6855 16.425 47.6V45.8C16.4236 45.6794 16.4659 45.5624 16.544 45.4705C16.6221 45.3786 16.7308 45.3181 16.85 45.3C18.2012 45.0332 19.4849 44.4976 20.625 43.725C20.7053 43.6663 20.8007 43.6316 20.9 43.625C21.0395 43.6256 21.1736 43.6793 21.275 43.775L22.55 45.05C22.6761 45.1762 22.8466 45.248 23.025 45.25C23.1096 45.2489 23.1932 45.2306 23.2705 45.1962C23.3479 45.1618 23.4175 45.1121 23.475 45.05L24.875 43.65C25.0012 43.5239 25.073 43.3534 25.075 43.175C25.0681 42.9977 24.997 42.8289 24.875 42.7L23.6 41.425C23.5153 41.3405 23.4637 41.2285 23.4545 41.1093C23.4453 40.99 23.4792 40.8714 23.55 40.775C24.3226 39.6349 24.8582 38.3512 25.125 37C25.1431 36.8808 25.2036 36.7721 25.2955 36.694C25.3874 36.6159 25.5044 36.5736 25.625 36.575H27.425C27.5105 36.5757 27.5954 36.5593 27.6745 36.5269C27.7537 36.4944 27.8256 36.4466 27.8861 36.3861C27.9466 36.3256 27.9945 36.2537 28.0269 36.1745C28.0593 36.0954 28.0757 36.0105 28.075 35.925V33.95C28.0757 33.8645 28.0593 33.7796 28.0269 33.7005C27.9945 33.6213 27.9466 33.5494 27.8861 33.4889C27.8256 33.4284 27.7537 33.3806 27.6745 33.3481C27.5954 33.3157 27.5105 33.2993 27.425 33.3H25.625C25.5044 33.3014 25.3874 33.2591 25.2955 33.181C25.2036 33.1029 25.1431 32.9942 25.125 32.875C24.8536 31.5253 24.3184 30.2424 23.55 29.1C23.4843 29.0017 23.4535 28.8842 23.4626 28.7664C23.4716 28.6485 23.52 28.5371 23.6 28.45L24.875 27.175C25.0012 27.0489 25.073 26.8784 25.075 26.7C25.0681 26.5227 24.997 26.3539 24.875 26.225L23.475 24.825C23.3489 24.6988 23.1784 24.627 23 24.625C22.8227 24.6319 22.6539 24.703 22.525 24.825L21.25 26.1C21.1577 26.1942 21.0319 26.2481 20.9 26.25C20.803 26.2522 20.7075 26.2262 20.625 26.175C19.4849 25.4024 18.2012 24.8668 16.85 24.6C16.7308 24.5819 16.6221 24.5214 16.544 24.4295C16.4659 24.3376 16.4236 24.2206 16.425 24.1V22.3C16.4257 22.2145 16.4093 22.1296 16.3769 22.0505C16.3445 21.9713 16.2966 21.8994 16.2361 21.8389C16.1756 21.7784 16.1037 21.7306 16.0245 21.6981C15.9454 21.6657 15.8605 21.6493 15.775 21.65H13.8C13.7145 21.6493 13.6296 21.6657 13.5505 21.6981C13.4713 21.7306 13.3994 21.7784 13.3389 21.8389C13.2784 21.8994 13.2306 21.9713 13.1981 22.0505C13.1657 22.1296 13.1493 22.2145 13.15 22.3V24.1C13.1514 24.2206 13.1091 24.3376 13.031 24.4295C12.9529 24.5214 12.8442 24.5819 12.725 24.6C11.3753 24.8714 10.0924 25.4066 8.95001 26.175C8.86967 26.2337 8.7743 26.2684 8.67501 26.275C8.53551 26.2744 8.40146 26.2207 8.30001 26.125L7.02501 24.825C6.8989 24.6988 6.72839 24.627 6.55001 24.625C6.37267 24.6319 6.20388 24.703 6.07501 24.825L4.67501 26.225C4.61181 26.2869 4.56161 26.3608 4.52734 26.4424C4.49306 26.5239 4.47541 26.6115 4.47541 26.7C4.47541 26.7885 4.49306 26.8761 4.52734 26.9576C4.56161 27.0392 4.61181 27.1131 4.67501 27.175L6.00001 28.5C6.08471 28.5845 6.13633 28.6965 6.14551 28.8157C6.15468 28.935 6.1208 29.0536 6.05001 29.15C5.27738 30.2901 4.74177 31.5738 4.47501 32.925C4.45693 33.0442 4.39636 33.1529 4.30448 33.231C4.2126 33.3091 4.09559 33.3514 3.97501 33.35H2.20001C2.11446 33.3493 2.02964 33.3657 1.95048 33.3981C1.87131 33.4306 1.79939 33.4784 1.7389 33.5389C1.67841 33.5994 1.63056 33.6713 1.59813 33.7505C1.5657 33.8296 1.54934 33.9145 1.55001 34V35.975C1.54934 36.0605 1.5657 36.1454 1.59813 36.2245C1.63056 36.3037 1.67841 36.3756 1.7389 36.4361C1.79939 36.4966 1.87131 36.5444 1.95048 36.5769C2.02964 36.6093 2.11446 36.6257 2.20001 36.625H4.00001C4.12059 36.6236 4.2376 36.6659 4.32948 36.744C4.42136 36.8221 4.48193 36.9308 4.50001 37.05C4.76677 38.4012 5.30237 39.6849 6.07501 40.825C6.14071 40.9233 6.1715 41.0408 6.16244 41.1586C6.15337 41.2765 6.10497 41.3879 6.02501 41.475L4.75001 42.75C4.62995 42.874 4.56283 43.0399 4.56283 43.2125C4.56283 43.3851 4.62995 43.551 4.75001 43.675L6.15001 45.075C6.27612 45.2012 6.44662 45.273 6.62501 45.275C6.70965 45.2739 6.79318 45.2556 6.87053 45.2212C6.94789 45.1868 7.01745 45.1371 7.07501 45.075L8.35001 43.8C8.38374 43.7446 8.43163 43.6991 8.48875 43.6684C8.54588 43.6376 8.61017 43.6227 8.67501 43.625Z" fill="#EEEEEE" stroke="#EEEEEE" stroke-width="0.5"/>
<path d="M14.8 40.5C13.7122 40.5 12.6488 40.1774 11.7444 39.5731C10.8399 38.9687 10.1349 38.1098 9.71865 37.1048C9.30237 36.0998 9.19345 34.9939 9.40567 33.927C9.61789 32.8601 10.1417 31.8801 10.9109 31.1109C11.6801 30.3417 12.6601 29.8179 13.727 29.6057C14.7939 29.3935 15.8998 29.5024 16.9047 29.9187C17.9097 30.3349 18.7687 31.0399 19.3731 31.9444C19.9774 32.8488 20.3 33.9122 20.3 35C20.296 36.4575 19.7153 37.8541 18.6847 38.8847C17.6541 39.9153 16.2575 40.496 14.8 40.5ZM14.8 30.525C13.9149 30.525 13.0497 30.7875 12.3138 31.2792C11.5779 31.7709 11.0043 32.4698 10.6656 33.2875C10.3269 34.1052 10.2383 35.005 10.411 35.873C10.5836 36.7411 11.0098 37.5385 11.6357 38.1643C12.2615 38.7901 13.0589 39.2163 13.927 39.389C14.795 39.5617 15.6948 39.4731 16.5125 39.1344C17.3302 38.7957 18.0291 38.2221 18.5208 37.4862C19.0125 36.7503 19.275 35.8851 19.275 35C19.2756 34.4122 19.1603 33.8299 18.9357 33.2867C18.711 32.7435 18.3814 32.2499 17.9658 31.8342C17.5501 31.4186 17.0565 31.089 16.5133 30.8643C15.97 30.6396 15.3878 30.5243 14.8 30.525Z" fill="#EEEEEE" stroke="#EEEEEE" stroke-width="0.5"/>
</g>
<defs>
<clipPath id="clip0_75_209">
<rect width="50" height="50" fill="white"/>
</clipPath>
</defs>
</svg>
