<svg width="28" height="28" viewBox="0 0 28 28" fill="none" xmlns="http://www.w3.org/2000/svg">
<g clip-path="url(#clip0_73_50)">
<path d="M22.1288 17.3446C21.5556 16.7477 20.8642 16.4286 20.1314 16.4286C19.4045 16.4286 18.7072 16.7418 18.1103 17.3387L16.2429 19.2002C16.0892 19.1174 15.9356 19.0406 15.7878 18.9638C15.5751 18.8574 15.3742 18.757 15.2028 18.6506C13.4535 17.5396 11.8639 16.0917 10.3392 14.2184C9.60048 13.2847 9.10408 12.4987 8.74359 11.7009C9.22818 11.2577 9.67731 10.7967 10.1146 10.3535C10.2801 10.188 10.4456 10.0167 10.611 9.8512C11.852 8.61019 11.852 7.00278 10.611 5.76176L8.9977 4.14845C8.81451 3.96525 8.6254 3.77614 8.44811 3.58703C8.09354 3.22064 7.72123 2.84243 7.33711 2.48785C6.76388 1.92053 6.07837 1.61914 5.3574 1.61914C4.63643 1.61914 3.93909 1.92053 3.34813 2.48785C3.34222 2.49376 3.34223 2.49376 3.33632 2.49967L1.32705 4.52666C0.570626 5.28309 0.139226 6.20498 0.0446723 7.27462C-0.0971579 9.00022 0.411067 10.6076 0.8011 11.6595C1.75845 14.242 3.18858 16.6354 5.32194 19.2002C7.91034 22.2909 11.0247 24.7316 14.5823 26.4512C15.9415 27.0954 17.7557 27.8577 19.7827 27.9877C19.9068 27.9936 20.0368 27.9996 20.155 27.9996C21.5201 27.9996 22.6666 27.5091 23.5648 26.534C23.5708 26.5222 23.5826 26.5163 23.5885 26.5044C23.8958 26.1321 24.2504 25.7953 24.6227 25.4348C24.8768 25.1925 25.1368 24.9384 25.3909 24.6725C25.976 24.0638 26.2833 23.3546 26.2833 22.6277C26.2833 21.8949 25.9701 21.1917 25.3732 20.6007L22.1288 17.3446ZM24.2445 23.5674C24.2385 23.5674 24.2385 23.5733 24.2445 23.5674C24.014 23.8156 23.7776 24.0401 23.5235 24.2883C23.1394 24.6547 22.7493 25.0389 22.3829 25.4703C21.7861 26.1085 21.0828 26.4099 20.1609 26.4099C20.0723 26.4099 19.9777 26.4099 19.8891 26.404C18.1339 26.2917 16.5029 25.6062 15.2796 25.0211C11.9348 23.4019 8.9977 21.1031 6.55704 18.1896C4.54187 15.7608 3.19449 13.5151 2.30214 11.104C1.75254 9.63255 1.55162 8.48609 1.64026 7.40463C1.69936 6.71321 1.96529 6.13998 2.45579 5.64948L4.47096 3.63431C4.76053 3.36247 5.06783 3.21473 5.36922 3.21473C5.74152 3.21473 6.04291 3.43929 6.23202 3.6284C6.23793 3.63431 6.24383 3.64022 6.24974 3.64613C6.61023 3.98298 6.95299 4.33164 7.31347 4.70395C7.49667 4.89305 7.68578 5.08216 7.87488 5.27718L9.4882 6.8905C10.1146 7.51691 10.1146 8.09605 9.4882 8.72247C9.31682 8.89385 9.15135 9.06523 8.97998 9.23069C8.48357 9.73892 8.0108 10.2117 7.49667 10.6726C7.48485 10.6845 7.47303 10.6904 7.46712 10.7022C6.9589 11.2104 7.05345 11.7068 7.15982 12.0437C7.16573 12.0614 7.17164 12.0791 7.17755 12.0968C7.59713 13.1133 8.18809 14.0707 9.08635 15.2112L9.09226 15.2171C10.7233 17.2264 12.443 18.7924 14.34 19.9921C14.5823 20.1457 14.8305 20.2698 15.0669 20.388C15.2796 20.4944 15.4805 20.5948 15.6519 20.7012C15.6755 20.713 15.6992 20.7308 15.7228 20.7426C15.9237 20.843 16.1129 20.8903 16.3079 20.8903C16.7984 20.8903 17.1057 20.583 17.2061 20.4826L19.2272 18.4615C19.4281 18.2605 19.7473 18.0183 20.1196 18.0183C20.486 18.0183 20.7873 18.2487 20.9705 18.4497C20.9764 18.4556 20.9764 18.4556 20.9824 18.4615L24.2385 21.7177C24.8472 22.3204 24.8472 22.9409 24.2445 23.5674Z" fill="#507AB9"/>
<path d="M15.1318 6.66076C16.6802 6.92078 18.0866 7.65357 19.2095 8.77639C20.3323 9.89921 21.0592 11.3057 21.3251 12.854C21.3901 13.244 21.727 13.5159 22.1111 13.5159C22.1584 13.5159 22.1997 13.51 22.247 13.5041C22.6843 13.4331 22.9739 13.0195 22.903 12.5822C22.5838 10.7088 21.6974 9.00096 20.3441 7.64766C18.9908 6.29436 17.2829 5.40792 15.4096 5.08881C14.9723 5.01789 14.5645 5.30746 14.4877 5.73886C14.4109 6.17026 14.6945 6.58984 15.1318 6.66076Z" fill="#507AB9"/>
<path d="M27.9675 12.3514C27.4415 9.26658 25.9878 6.45953 23.7539 4.2257C21.5201 1.99188 18.7131 0.538116 15.6283 0.0121628C15.1969 -0.0646619 14.7891 0.230818 14.7123 0.662218C14.6414 1.09953 14.9309 1.50729 15.3682 1.58411C18.1221 2.05097 20.6337 3.35699 22.6311 5.34852C24.6286 7.34597 25.9287 9.85754 26.3955 12.6114C26.4605 13.0014 26.7974 13.2733 27.1815 13.2733C27.2288 13.2733 27.2702 13.2674 27.3174 13.2615C27.7488 13.1965 28.0443 12.7828 27.9675 12.3514Z" fill="#507AB9"/>
</g>
<defs>
<clipPath id="clip0_73_50">
<rect width="28" height="28" fill="white"/>
</clipPath>
</defs>
</svg>
