<svg width="41" height="41" viewBox="0 0 41 41" fill="none" xmlns="http://www.w3.org/2000/svg">
<path fill-rule="evenodd" clip-rule="evenodd" d="M2.42117 20.203C2.06924 15.7389 4.36522 5.75394 16.5447 1.95463L16.2469 1C3.51514 4.97159 1.04522 15.4735 1.42426 20.2816L2.42117 20.203ZM17.3302 15.0999C16.9738 12.3729 17.3289 8.55692 19.4524 5.87164C21.4501 3.34545 25.1253 1.68716 31.675 3.09638L26.9918 8.20385L26.6767 8.54748L26.9975 8.88579L31.6026 13.7426L31.9368 14.0951L32.2988 13.7712L37.6194 9.01C38.2812 11.6558 38.4618 15.1865 37.1207 18.0605C36.3896 19.6273 35.2044 21.0055 33.3773 21.956C31.5441 22.9096 29.0332 23.4485 25.6315 23.2751L25.411 23.2639L25.2541 23.4193L11.446 37.0996C9.09003 39.2504 6.01119 38.6653 3.98069 36.8777C2.96891 35.9869 2.26185 34.828 2.05956 33.631C1.86007 32.4505 2.14432 31.2021 3.17001 30.0713L3.17011 30.0712L3.17021 30.0711L10.1873 22.3445L9.44701 21.6722L2.42974 29.399L2.42954 29.3992C1.19537 30.7598 0.823519 32.3181 1.07354 33.7976C1.32079 35.2606 2.16894 36.6149 3.31989 37.6282C5.61278 39.6469 9.28526 40.4344 12.1284 37.8306L12.1357 37.824L12.1427 37.8171L25.802 24.2842C29.2215 24.4302 31.8502 23.8776 33.8388 22.8431C35.8762 21.7832 37.2101 20.2336 38.0269 18.4834C39.6476 15.0102 39.2237 10.775 38.3645 7.95454L38.1364 7.20545L37.5528 7.72764L31.994 12.702L28.0439 8.53605L32.9918 3.13986L33.5623 2.51767L32.7425 2.31637C25.4284 0.520458 21.0684 2.21595 18.668 5.25136C16.3771 8.14841 15.9852 12.1321 16.3087 14.9845L14.0675 17.2408L14.777 17.9455L17.1892 15.5171L17.362 15.3431L17.3302 15.0999ZM21.2561 39.5059C23.885 39.3169 27.9466 38.3355 31.6507 36.003C35.3656 33.6637 38.7372 29.9528 39.9108 24.318L38.9318 24.1141C37.8248 29.4292 34.6542 32.9299 31.1179 35.1568C27.5708 37.3904 23.6722 38.3296 21.1844 38.5085L21.2561 39.5059ZM6.51837 32.5733C6.51837 33.5014 7.27087 34.254 8.19931 34.254C9.12774 34.254 9.88024 33.5014 9.88024 32.5733C9.88024 31.6451 9.12774 30.8925 8.19931 30.8925C7.27087 30.8925 6.51837 31.6451 6.51837 32.5733ZM5.51837 32.5733C5.51837 34.0538 6.71867 35.254 8.19931 35.254C9.67995 35.254 10.8802 34.0538 10.8802 32.5733C10.8802 31.0927 9.67995 29.8925 8.19931 29.8925C6.71867 29.8925 5.51837 31.0927 5.51837 32.5733Z" fill="#507AB9"/>
<path d="M16.5447 1.95463L16.6936 2.43195L17.1709 2.28305L17.022 1.80574L16.5447 1.95463ZM2.42117 20.203L2.46046 20.7014L2.95892 20.6621L2.91962 20.1637L2.42117 20.203ZM16.2469 1L16.7243 0.851105L16.5754 0.373789L16.098 0.522684L16.2469 1ZM1.42426 20.2816L0.925807 20.3209L0.965102 20.8193L1.46356 20.78L1.42426 20.2816ZM19.4524 5.87164L19.0602 5.5615V5.5615L19.4524 5.87164ZM17.3302 15.0999L16.8344 15.1647V15.1647L17.3302 15.0999ZM31.675 3.09638L32.0435 3.43429L32.6332 2.79112L31.7801 2.60757L31.675 3.09638ZM26.9918 8.20385L26.6233 7.86594V7.86594L26.9918 8.20385ZM26.6767 8.54748L26.3082 8.20957L25.9931 8.55319L26.3139 8.89151L26.6767 8.54748ZM26.9975 8.88579L26.6347 9.22982V9.22982L26.9975 8.88579ZM31.6026 13.7426L31.2398 14.0866L31.2398 14.0866L31.6026 13.7426ZM31.9368 14.0951L31.574 14.4391L31.9083 14.7917L32.2703 14.4677L31.9368 14.0951ZM32.2988 13.7712L32.6323 14.1438V14.1438L32.2988 13.7712ZM37.6194 9.01L38.1045 8.88867L37.9034 8.08489L37.286 8.6374L37.6194 9.01ZM37.1207 18.0605L36.6676 17.8491V17.8491L37.1207 18.0605ZM33.3773 21.956L33.608 22.3995V22.3995L33.3773 21.956ZM25.6315 23.2751L25.6569 22.7758L25.6315 23.2751ZM25.411 23.2639L25.4364 22.7645L25.2159 22.7533L25.0591 22.9087L25.411 23.2639ZM25.2541 23.4193L25.606 23.7745L25.2541 23.4193ZM11.446 37.0996L11.7831 37.4689L11.7906 37.462L11.7979 37.4548L11.446 37.0996ZM3.98069 36.8777L3.65029 37.2529H3.65029L3.98069 36.8777ZM2.05956 33.631L1.56655 33.7143H1.56655L2.05956 33.631ZM3.17001 30.0713L3.54037 30.4072L3.54133 30.4061L3.17001 30.0713ZM3.17011 30.0712L2.80088 29.734L2.79879 29.7363L3.17011 30.0712ZM3.17021 30.0711L3.53944 30.4082L3.54035 30.4072L3.17021 30.0711ZM10.1873 22.3445L10.5574 22.6807L10.8936 22.3105L10.5234 21.9744L10.1873 22.3445ZM9.44701 21.6722L9.78316 21.3021L9.41302 20.9659L9.07687 21.3361L9.44701 21.6722ZM2.42974 29.399L2.0596 29.0628L2.05949 29.0629L2.42974 29.399ZM2.42954 29.3992L2.05929 29.0632L2.0592 29.0633L2.42954 29.3992ZM1.07354 33.7976L0.580535 33.8809L1.07354 33.7976ZM3.31989 37.6282L3.65029 37.2529H3.65029L3.31989 37.6282ZM12.1284 37.8306L11.7908 37.4618L11.7908 37.4619L12.1284 37.8306ZM12.1357 37.824L12.4733 38.1927L12.4806 38.1861L12.4876 38.1791L12.1357 37.824ZM12.1427 37.8171L11.7908 37.4619L11.7907 37.4619L12.1427 37.8171ZM25.802 24.2842L25.8233 23.7847L25.6051 23.7754L25.45 23.929L25.802 24.2842ZM33.8388 22.8431L33.608 22.3995L33.8388 22.8431ZM38.0269 18.4834L38.48 18.6948L38.0269 18.4834ZM38.3645 7.95454L37.8862 8.10024V8.10024L38.3645 7.95454ZM38.1364 7.20545L38.6147 7.05976L38.3865 6.31067L37.8029 6.83286L38.1364 7.20545ZM37.5528 7.72764L37.8862 8.10024V8.10024L37.5528 7.72764ZM31.994 12.702L31.6312 13.0461L31.9654 13.3986L32.3274 13.0746L31.994 12.702ZM28.0439 8.53605L27.6754 8.19814L27.3603 8.54177L27.6811 8.88008L28.0439 8.53605ZM32.9918 3.13986L33.3604 3.47777L32.9918 3.13986ZM33.5623 2.51767L33.9309 2.85558L34.5014 2.23339L33.6816 2.03209L33.5623 2.51767ZM32.7425 2.31637L32.6233 2.80195L32.7425 2.31637ZM18.668 5.25136L19.0602 5.5615L18.668 5.25136ZM16.3087 14.9845L16.6635 15.3368L16.8326 15.1666L16.8056 14.9281L16.3087 14.9845ZM14.0675 17.2408L13.7128 16.8884L13.3604 17.2431L13.7151 17.5955L14.0675 17.2408ZM14.777 17.9455L14.4246 18.3002L14.7793 18.6526L15.1317 18.2979L14.777 17.9455ZM17.1892 15.5171L16.8344 15.1647V15.1647L17.1892 15.5171ZM17.362 15.3431L17.7167 15.6955L17.8896 15.5215L17.8578 15.2783L17.362 15.3431ZM31.6507 36.003L31.3843 35.5799L31.6507 36.003ZM21.2561 39.5059L20.7574 39.5418L20.7932 40.0405L21.2919 40.0046L21.2561 39.5059ZM39.9108 24.318L40.4003 24.4199L40.5022 23.9304L40.0127 23.8285L39.9108 24.318ZM38.9318 24.1141L39.0337 23.6246L38.5442 23.5226L38.4423 24.0121L38.9318 24.1141ZM31.1179 35.1568L31.3843 35.5799H31.3843L31.1179 35.1568ZM21.1844 38.5085L21.1485 38.0098L20.6498 38.0457L20.6856 38.5444L21.1844 38.5085ZM16.3958 1.47732C3.94045 5.36268 1.5572 15.6059 1.92271 20.2423L2.91962 20.1637C2.58128 15.872 4.78999 6.1452 16.6936 2.43195L16.3958 1.47732ZM15.7696 1.14889L16.0674 2.10353L17.022 1.80574L16.7243 0.851105L15.7696 1.14889ZM1.92271 20.2423C1.55721 15.6059 3.94043 5.36268 16.3958 1.47732L16.098 0.522684C3.08984 4.5805 0.53323 15.3411 0.925807 20.3209L1.92271 20.2423ZM2.38187 19.7045L1.38496 19.7831L1.46356 20.78L2.46046 20.7014L2.38187 19.7045ZM19.0602 5.5615C16.8198 8.39458 16.4689 12.3683 16.8344 15.1647L17.826 15.0351C17.4786 12.3776 17.838 8.71926 19.8446 6.18178L19.0602 5.5615ZM31.7801 2.60757C25.1033 1.171 21.2095 2.8436 19.0602 5.5615L19.8446 6.18178C21.6907 3.8473 25.1472 2.20331 31.5698 3.58519L31.7801 2.60757ZM27.3603 8.54177L32.0435 3.43429L31.3064 2.75847L26.6233 7.86594L27.3603 8.54177ZM27.0453 8.88539L27.3603 8.54177L26.6233 7.86594L26.3082 8.20957L27.0453 8.88539ZM27.3603 8.54177L27.0396 8.20346L26.3139 8.89151L26.6347 9.22982L27.3603 8.54177ZM31.9654 13.3986L27.3603 8.54177L26.6347 9.22982L31.2398 14.0866L31.9654 13.3986ZM32.2997 13.7511L31.9654 13.3986L31.2398 14.0866L31.574 14.4391L32.2997 13.7511ZM31.9654 13.3986L31.6034 13.7225L32.2703 14.4677L32.6323 14.1438L31.9654 13.3986ZM37.286 8.6374L31.9654 13.3986L32.6323 14.1438L37.9528 9.3826L37.286 8.6374ZM37.5738 18.2719C38.9823 15.2534 38.7808 11.5926 38.1045 8.88867L37.1343 9.13133C37.7816 11.7189 37.9412 15.1197 36.6676 17.8491L37.5738 18.2719ZM33.608 22.3995C35.5403 21.3944 36.7998 19.9305 37.5738 18.2719L36.6676 17.8491C35.9793 19.3241 34.8684 20.6167 33.1465 21.5124L33.608 22.3995ZM25.606 23.7745C29.0708 23.9511 31.6758 23.4047 33.608 22.3995L33.1465 21.5124C31.4124 22.4145 28.9957 22.946 25.6569 22.7758L25.606 23.7745ZM25.3855 23.7633L25.606 23.7745L25.6569 22.7758L25.4364 22.7645L25.3855 23.7633ZM25.606 23.7745L25.7629 23.6191L25.0591 22.9087L24.9022 23.0641L25.606 23.7745ZM11.7979 37.4548L25.606 23.7745L24.9022 23.0641L11.0941 36.7444L11.7979 37.4548ZM3.65029 37.2529C5.81221 39.1563 9.18503 39.8406 11.7831 37.4689L11.1089 36.7304C8.99503 38.6601 6.21018 38.1744 4.31109 36.5024L3.65029 37.2529ZM1.56655 33.7143C1.79131 35.0442 2.56887 36.3008 3.65029 37.2529L4.31109 36.5024C3.36896 35.6729 2.73239 34.6117 2.55257 33.5477L1.56655 33.7143ZM2.79966 29.7354C1.66983 30.981 1.3418 32.3844 1.56655 33.7143L2.55257 33.5477C2.37834 32.5167 2.61881 31.4232 3.54037 30.4072L2.79966 29.7354ZM2.79879 29.7363L2.7987 29.7364L3.54133 30.4061L3.54143 30.406L2.79879 29.7363ZM2.80099 29.7339L2.80088 29.734L3.53933 30.4083L3.53944 30.4082L2.80099 29.7339ZM9.81715 22.0084L2.80007 29.7349L3.54035 30.4072L10.5574 22.6807L9.81715 22.0084ZM9.11086 22.0424L9.85113 22.7147L10.5234 21.9744L9.78316 21.3021L9.11086 22.0424ZM2.79987 29.7351L9.81715 22.0084L9.07687 21.3361L2.0596 29.0628L2.79987 29.7351ZM2.79978 29.7352L2.79998 29.735L2.05949 29.0629L2.05929 29.0632L2.79978 29.7352ZM1.56655 33.7143C1.34179 32.3843 1.66987 30.9809 2.79987 29.7351L2.0592 29.0633C0.720869 30.5387 0.305253 32.252 0.580535 33.8809L1.56655 33.7143ZM3.65029 37.2529C2.56887 36.3008 1.79131 35.0442 1.56655 33.7143L0.580535 33.8809C0.85027 35.477 1.76901 36.929 2.98949 38.0035L3.65029 37.2529ZM11.7908 37.4619C9.19169 39.8421 5.81419 39.1581 3.65029 37.2529L2.98949 38.0035C5.41138 40.1358 9.37882 41.0267 12.4661 38.1993L11.7908 37.4619ZM11.798 37.4552L11.7908 37.4618L12.4661 38.1994L12.4733 38.1927L11.798 37.4552ZM11.7907 37.4619L11.7837 37.4688L12.4876 38.1791L12.4946 38.1722L11.7907 37.4619ZM25.45 23.929L11.7908 37.4619L12.4946 38.1723L26.1539 24.6394L25.45 23.929ZM33.608 22.3995C31.7164 23.3836 29.1801 23.9279 25.8233 23.7847L25.7806 24.7838C29.263 24.9324 31.9839 24.3716 34.0695 23.2867L33.608 22.3995ZM37.5738 18.2719C36.7998 19.9305 35.5403 21.3944 33.608 22.3995L34.0695 23.2867C36.2122 22.1721 37.6204 20.5368 38.48 18.6948L37.5738 18.2719ZM37.8862 8.10024C38.7269 10.8599 39.1216 14.955 37.5738 18.2719L38.48 18.6948C40.1736 15.0653 39.7205 10.6901 38.8428 7.80884L37.8862 8.10024ZM37.6581 7.35115L37.8862 8.10024L38.8428 7.80884L38.6147 7.05976L37.6581 7.35115ZM37.8862 8.10024L38.4698 7.57805L37.8029 6.83286L37.2194 7.35505L37.8862 8.10024ZM32.3274 13.0746L37.8862 8.10024L37.2194 7.35505L31.6606 12.3294L32.3274 13.0746ZM27.6811 8.88008L31.6312 13.0461L32.3568 12.358L28.4068 8.19203L27.6811 8.88008ZM32.6233 2.80195L27.6754 8.19814L28.4125 8.87397L33.3604 3.47777L32.6233 2.80195ZM33.1938 2.17976L32.6233 2.80195L33.3604 3.47777L33.9309 2.85558L33.1938 2.17976ZM32.6233 2.80195L33.4431 3.00324L33.6816 2.03209L32.8618 1.8308L32.6233 2.80195ZM19.0602 5.5615C21.3004 2.72859 25.4302 1.03575 32.6233 2.80195L32.8618 1.8308C25.4267 0.00516999 20.8363 1.70331 18.2758 4.94122L19.0602 5.5615ZM16.8056 14.9281C16.4898 12.144 16.8835 8.31411 19.0602 5.5615L18.2758 4.94122C15.8707 7.9827 15.4807 12.1202 15.8119 15.0408L16.8056 14.9281ZM14.4222 17.5931L16.6635 15.3368L15.954 14.6321L13.7128 16.8884L14.4222 17.5931ZM15.1293 17.5908L14.4199 16.886L13.7151 17.5955L14.4246 18.3002L15.1293 17.5908ZM16.8344 15.1647L14.4222 17.5931L15.1317 18.2979L17.5439 15.8695L16.8344 15.1647ZM17.0073 14.9907L16.8344 15.1647L17.5439 15.8695L17.7167 15.6955L17.0073 14.9907ZM16.8344 15.1647L16.8662 15.4079L17.8578 15.2783L17.826 15.0351L16.8344 15.1647ZM31.3843 35.5799C27.7587 37.8629 23.7786 38.8232 21.2202 39.0072L21.2919 40.0046C23.9914 39.8105 28.1345 38.808 31.9172 36.4261L31.3843 35.5799ZM39.4213 24.216C38.281 29.6909 35.0099 33.2968 31.3843 35.5799L31.9172 36.4261C35.7213 34.0306 39.1934 30.2146 40.4003 24.4199L39.4213 24.216ZM38.8298 24.6036L39.8088 24.8075L40.0127 23.8285L39.0337 23.6246L38.8298 24.6036ZM31.3843 35.5799C35.0099 33.2968 38.281 29.6909 39.4213 24.216L38.4423 24.0121C37.3685 29.1675 34.2984 32.5631 30.8514 34.7337L31.3843 35.5799ZM21.2202 39.0072C23.7786 38.8232 27.7587 37.8629 31.3843 35.5799L30.8514 34.7337C27.3829 36.9178 23.5658 37.836 21.1485 38.0098L21.2202 39.0072ZM21.7548 39.4701L21.6831 38.4726L20.6856 38.5444L20.7574 39.5418L21.7548 39.4701ZM8.19931 33.754C7.54698 33.754 7.01837 33.2252 7.01837 32.5733H6.01837C6.01837 33.7776 6.99476 34.754 8.19931 34.754V33.754ZM9.38024 32.5733C9.38024 33.2252 8.85163 33.754 8.19931 33.754V34.754C9.40385 34.754 10.3802 33.7776 10.3802 32.5733H9.38024ZM8.19931 31.3925C8.85163 31.3925 9.38024 31.9213 9.38024 32.5733H10.3802C10.3802 31.3689 9.40385 30.3925 8.19931 30.3925V31.3925ZM7.01837 32.5733C7.01837 31.9213 7.54698 31.3925 8.19931 31.3925V30.3925C6.99476 30.3925 6.01837 31.3689 6.01837 32.5733H7.01837ZM8.19931 34.754C6.99477 34.754 6.01837 33.7776 6.01837 32.5733H5.01837C5.01837 34.33 6.44257 35.754 8.19931 35.754V34.754ZM10.3802 32.5733C10.3802 33.7776 9.40385 34.754 8.19931 34.754V35.754C9.95605 35.754 11.3802 34.33 11.3802 32.5733H10.3802ZM8.19931 30.3925C9.40385 30.3925 10.3802 31.3689 10.3802 32.5733H11.3802C11.3802 30.8166 9.95605 29.3925 8.19931 29.3925V30.3925ZM6.01837 32.5733C6.01837 31.3689 6.99477 30.3925 8.19931 30.3925V29.3925C6.44257 29.3925 5.01837 30.8166 5.01837 32.5733H6.01837Z" fill="#507AB9"/>
</svg>
