<svg width="43" height="42" viewBox="0 0 43 42" fill="none" xmlns="http://www.w3.org/2000/svg">
<path fill-rule="evenodd" clip-rule="evenodd" d="M26.117 1.42788L25.849 0.890381L25.369 1.25139L21.2425 4.355L16.684 1.23824L16.2104 0.914396L15.9543 1.42788L13.4693 6.41189L8.09291 5.58244L7.49287 5.48986L7.51707 6.09652L7.72366 11.2759L2.53465 13.3573L2.0226 13.5627L2.27724 14.0522L4.76589 18.8355L1.24441 22.7823L0.861633 23.2113L1.3396 23.5308L5.67555 26.4296L4.22385 31.8367L4.06719 32.4202L4.66971 32.465L10.2633 32.8805L11.5023 38.0573L11.6342 38.6084L12.1646 38.4089L17.1308 36.5414L20.6543 40.6983L21.0474 41.1621L21.4266 40.6868L24.7336 36.5414L29.913 38.4112L30.4389 38.6011L30.5691 38.0573L31.8154 32.8497L37.0025 32.0175L37.5402 31.9312L37.4085 31.4028L36.1715 26.4411L40.7229 23.5366L41.2326 23.2113L40.8174 22.7718L37.0985 18.8353L39.7862 14.0669L40.0836 13.5392L39.5091 13.3472L34.5547 11.6911V6.07659V5.49353L33.9785 5.58244L28.6021 6.41189L26.117 1.42788ZM14.2013 7.18481L16.5932 2.38758L20.9741 5.38294L21.2702 5.58538L21.5569 5.36978L25.4901 2.4116L27.8701 7.18481L28.033 7.51153L28.3938 7.45586L33.5547 6.65964V12.0512V12.4112L33.8962 12.5254L38.6176 14.1036L36.0464 18.6653L35.8655 18.9863L36.1185 19.2542L39.6752 23.019L35.3304 25.7916L35.0272 25.9851L35.1142 26.334L36.3064 31.1164L31.3276 31.9152L30.9982 31.9681L30.9205 32.2925L29.7267 37.2808L24.7361 35.4791L24.3989 35.3574L24.1754 35.6376L21.024 39.5879L17.6659 35.6261L17.4381 35.3574L17.1085 35.4814L12.343 37.2735L11.1509 32.2925L11.0659 31.9373L10.7016 31.9103L5.34631 31.5125L6.73428 26.3427L6.82721 25.9966L6.52927 25.7974L2.37335 23.019L5.74182 19.2437L5.97157 18.9862L5.81229 18.6801L3.419 14.0801L8.42348 12.0726L8.751 11.9413L8.73694 11.5887L8.54047 6.66332L13.6776 7.45586L14.0384 7.51153L14.2013 7.18481ZM18.292 25.2468L27.7804 16.1743L27.0893 15.4515L17.9664 24.1746L15.0018 21.0035L14.2713 21.6864L17.5812 25.2269L17.9265 25.5962L18.292 25.2468ZM32.3927 20.6814C32.3927 26.9755 27.3054 32.0731 21.0357 32.0731C14.766 32.0731 9.67865 26.9755 9.67865 20.6814C9.67865 14.3873 14.766 9.28971 21.0357 9.28971C27.3054 9.28971 32.3927 14.3873 32.3927 20.6814ZM33.3927 20.6814C33.3927 27.5251 27.8603 33.0731 21.0357 33.0731C14.2111 33.0731 8.67865 27.5251 8.67865 20.6814C8.67865 13.8377 14.2111 8.28971 21.0357 8.28971C27.8603 8.28971 33.3927 13.8377 33.3927 20.6814Z" fill="#507AB9"/>
<path d="M25.849 0.890381L26.2965 0.667274L26.0285 0.129774L25.5485 0.490785L25.849 0.890381ZM26.117 1.42788L26.5645 1.20478V1.20478L26.117 1.42788ZM25.369 1.25139L25.6696 1.65099V1.65099L25.369 1.25139ZM21.2425 4.355L20.9603 4.76774L21.2564 4.97019L21.543 4.75459L21.2425 4.355ZM16.684 1.23824L16.4018 1.65099V1.65099L16.684 1.23824ZM16.2104 0.914396L16.4926 0.50165L16.0189 0.177805L15.7629 0.69129L16.2104 0.914396ZM15.9543 1.42788L15.5069 1.20478L15.5069 1.20478L15.9543 1.42788ZM13.4693 6.41189L13.3931 6.90605L13.7539 6.96171L13.9168 6.635L13.4693 6.41189ZM8.09291 5.58244L8.16914 5.08828L8.09291 5.58244ZM7.49287 5.48986L7.56911 4.99571L6.96907 4.90314L6.99327 5.50979L7.49287 5.48986ZM7.51707 6.09652L8.01667 6.07659V6.07659L7.51707 6.09652ZM7.72366 11.2759L7.90981 11.74L8.23733 11.6086L8.22327 11.256L7.72366 11.2759ZM2.53465 13.3573L2.7208 13.8214L2.7208 13.8214L2.53465 13.3573ZM2.0226 13.5627L1.83645 13.0987L1.3244 13.3041L1.57904 13.7935L2.0226 13.5627ZM2.27724 14.0522L1.83368 14.2829H1.83368L2.27724 14.0522ZM4.76589 18.8355L5.13898 19.1683L5.36873 18.9108L5.20945 18.6047L4.76589 18.8355ZM1.24441 22.7823L1.61749 23.1152H1.61749L1.24441 22.7823ZM0.861633 23.2113L0.488549 22.8784L0.105776 23.3074L0.583745 23.6269L0.861633 23.2113ZM1.3396 23.5308L1.06172 23.9465H1.06172L1.3396 23.5308ZM5.67555 26.4296L6.15845 26.5592L6.25138 26.2131L5.95344 26.0139L5.67555 26.4296ZM4.22385 31.8367L4.70675 31.9664L4.22385 31.8367ZM4.06719 32.4202L3.58429 32.2906L3.42763 32.8741L4.03015 32.9188L4.06719 32.4202ZM4.66971 32.465L4.70675 31.9664H4.70675L4.66971 32.465ZM10.2633 32.8805L10.7496 32.7641L10.6646 32.4089L10.3004 32.3819L10.2633 32.8805ZM11.5023 38.0573L11.016 38.1737H11.016L11.5023 38.0573ZM11.6342 38.6084L11.1479 38.7247L11.2798 39.2758L11.8102 39.0764L11.6342 38.6084ZM12.1646 38.4089L11.9886 37.9409L12.1646 38.4089ZM17.1308 36.5414L17.5122 36.2181L17.2845 35.9494L16.9548 36.0734L17.1308 36.5414ZM20.6543 40.6983L21.0357 40.375L20.6543 40.6983ZM21.0474 41.1621L20.666 41.4854L21.0591 41.9492L21.4383 41.4739L21.0474 41.1621ZM21.4266 40.6868L21.8174 40.9986H21.8174L21.4266 40.6868ZM24.7336 36.5414L24.9034 36.0711L24.5663 35.9494L24.3428 36.2296L24.7336 36.5414ZM29.913 38.4112L30.0828 37.9409L29.913 38.4112ZM30.4389 38.6011L30.2692 39.0714L30.7951 39.2612L30.9252 38.7174L30.4389 38.6011ZM30.5691 38.0573L31.0553 38.1737L30.5691 38.0573ZM31.8154 32.8497L31.7362 32.3561L31.4068 32.4089L31.3291 32.7334L31.8154 32.8497ZM37.0025 32.0175L37.0817 32.5112H37.0817L37.0025 32.0175ZM37.5402 31.9312L37.6194 32.4249L38.1571 32.3386L38.0253 31.8103L37.5402 31.9312ZM37.4085 31.4028L37.8936 31.2819L37.4085 31.4028ZM36.1715 26.4411L35.9025 26.0196L35.5993 26.2131L35.6863 26.562L36.1715 26.4411ZM40.7229 23.5366L40.4539 23.1152L40.7229 23.5366ZM41.2326 23.2113L41.5016 23.6328L42.0113 23.3075L41.5961 22.868L41.2326 23.2113ZM40.8174 22.7718L40.4539 23.1152L40.8174 22.7718ZM37.0985 18.8353L36.6629 18.5898L36.482 18.9108L36.735 19.1787L37.0985 18.8353ZM39.7862 14.0669L40.2217 14.3124L40.2217 14.3124L39.7862 14.0669ZM40.0836 13.5392L40.5192 13.7847L40.8166 13.257L40.2421 13.065L40.0836 13.5392ZM39.5091 13.3472L39.3506 13.8214L39.5091 13.3472ZM34.5547 11.6911H34.0547V12.0512L34.3962 12.1653L34.5547 11.6911ZM34.5547 5.49353H35.0547V4.91048L34.4785 4.99938L34.5547 5.49353ZM33.9785 5.58244L34.0547 6.07659L33.9785 5.58244ZM28.6021 6.41189L28.1546 6.635L28.3175 6.96171L28.6783 6.90605L28.6021 6.41189ZM16.5932 2.38758L16.8754 1.97483L16.4018 1.65099L16.1458 2.16447L16.5932 2.38758ZM14.2013 7.18481L13.7539 6.96171V6.96171L14.2013 7.18481ZM20.9741 5.38294L20.6919 5.79568V5.79568L20.9741 5.38294ZM21.2702 5.58538L20.988 5.99813L21.2841 6.20057L21.5708 5.98498L21.2702 5.58538ZM21.5569 5.36978L21.8574 5.76938V5.76938L21.5569 5.36978ZM25.4901 2.4116L25.9376 2.18849L25.6696 1.65099L25.1896 2.012L25.4901 2.4116ZM27.8701 7.18481L28.3175 6.96171L27.8701 7.18481ZM28.033 7.51153L27.5855 7.73463L27.7484 8.06134L28.1092 8.00568L28.033 7.51153ZM28.3938 7.45586L28.3175 6.96171L28.3938 7.45586ZM33.5547 6.65964H34.0547V6.07659L33.4785 6.16549L33.5547 6.65964ZM33.5547 12.4112H33.0547V12.7713L33.3962 12.8854L33.5547 12.4112ZM33.8962 12.5254L34.0547 12.0512L33.8962 12.5254ZM38.6176 14.1036L39.0532 14.3491L39.3506 13.8214L38.7761 13.6294L38.6176 14.1036ZM36.0464 18.6653L36.482 18.9108V18.9108L36.0464 18.6653ZM35.8655 18.9863L35.4299 18.7408L35.249 19.0618L35.502 19.3297L35.8655 18.9863ZM36.1185 19.2542L35.7551 19.5976V19.5976L36.1185 19.2542ZM39.6752 23.019L39.9441 23.4404L40.4539 23.1152L40.0386 22.6756L39.6752 23.019ZM35.3304 25.7916L35.0614 25.3701L35.3304 25.7916ZM35.0272 25.9851L34.7582 25.5636L34.455 25.757L34.542 26.106L35.0272 25.9851ZM35.1142 26.334L34.629 26.455L35.1142 26.334ZM36.3064 31.1164L36.3857 31.6101L36.9233 31.5238L36.7916 30.9954L36.3064 31.1164ZM31.3276 31.9152L31.2484 31.4215L31.3276 31.9152ZM30.9982 31.9681L30.919 31.4744L30.5895 31.5272L30.5119 31.8517L30.9982 31.9681ZM30.9205 32.2925L31.4068 32.4089V32.4089L30.9205 32.2925ZM29.7267 37.2808L29.5569 37.7511L30.0828 37.9409L30.213 37.3971L29.7267 37.2808ZM24.7361 35.4791L24.9058 35.0088L24.7361 35.4791ZM24.3989 35.3574L24.5687 34.8871L24.2316 34.7654L24.0081 35.0456L24.3989 35.3574ZM24.1754 35.6376L24.5663 35.9494L24.1754 35.6376ZM21.024 39.5879L20.6426 39.9112L21.0357 40.375L21.4149 39.8997L21.024 39.5879ZM17.6659 35.6261L18.0473 35.3028H18.0473L17.6659 35.6261ZM17.4381 35.3574L17.8195 35.0341L17.5918 34.7654L17.2621 34.8894L17.4381 35.3574ZM17.1085 35.4814L17.2845 35.9494L17.1085 35.4814ZM12.343 37.2735L11.8567 37.3898L11.9886 37.9409L12.5189 37.7415L12.343 37.2735ZM11.1509 32.2925L10.6646 32.4089L11.1509 32.2925ZM11.0659 31.9373L11.5521 31.821L11.4671 31.4658L11.1029 31.4387L11.0659 31.9373ZM10.7016 31.9103L10.7387 31.4117H10.7387L10.7016 31.9103ZM5.34631 31.5125L4.86341 31.3828L4.70675 31.9664L5.30927 32.0111L5.34631 31.5125ZM6.73428 26.3427L6.25138 26.2131H6.25138L6.73428 26.3427ZM6.82721 25.9966L7.31011 26.1262L7.40304 25.7801L7.1051 25.5809L6.82721 25.9966ZM6.52927 25.7974L6.80716 25.3817H6.80716L6.52927 25.7974ZM2.37335 23.019L2.00027 22.6861L1.61749 23.1152L2.09546 23.4347L2.37335 23.019ZM5.74182 19.2437L6.1149 19.5766H6.1149L5.74182 19.2437ZM5.97157 18.9862L6.34466 19.3191L6.57441 19.0616L6.41513 18.7554L5.97157 18.9862ZM5.81229 18.6801L5.36873 18.9108L5.81229 18.6801ZM3.419 14.0801L3.23286 13.616L2.7208 13.8214L2.97544 14.3108L3.419 14.0801ZM8.42348 12.0726L8.60962 12.5367H8.60962L8.42348 12.0726ZM8.751 11.9413L8.93714 12.4053L9.26467 12.274L9.2506 11.9213L8.751 11.9413ZM8.73694 11.5887L9.23654 11.5687V11.5687L8.73694 11.5887ZM8.54047 6.66332L8.61671 6.16916L8.01667 6.07659L8.04087 6.68324L8.54047 6.66332ZM13.6776 7.45586L13.7539 6.96171H13.7539L13.6776 7.45586ZM14.0384 7.51153L13.9622 8.00568L14.323 8.06134L14.4859 7.73463L14.0384 7.51153ZM27.7804 16.1743L28.126 16.5357L28.4873 16.1901L28.1418 15.8288L27.7804 16.1743ZM18.292 25.2468L18.6375 25.6082L18.292 25.2468ZM27.0893 15.4515L27.4507 15.106L27.1052 14.7446L26.7438 15.0901L27.0893 15.4515ZM17.9664 24.1746L17.6011 24.516L17.9464 24.8854L18.3119 24.5359L17.9664 24.1746ZM15.0018 21.0035L15.367 20.662L15.0255 20.2967L14.6603 20.6382L15.0018 21.0035ZM14.2713 21.6864L13.9298 21.3211L13.5646 21.6626L13.906 22.0278L14.2713 21.6864ZM17.5812 25.2269L17.2159 25.5683H17.2159L17.5812 25.2269ZM17.9265 25.5962L17.5613 25.9377L17.9066 26.3071L18.2721 25.9576L17.9265 25.5962ZM25.4016 1.11349L25.6696 1.65099L26.5645 1.20478L26.2965 0.667274L25.4016 1.11349ZM25.6696 1.65099L26.1496 1.28998L25.5485 0.490785L25.0685 0.851796L25.6696 1.65099ZM21.543 4.75459L25.6696 1.65099L25.0685 0.851795L20.9419 3.9554L21.543 4.75459ZM16.4018 1.65099L20.9603 4.76774L21.5247 3.94225L16.9662 0.825496L16.4018 1.65099ZM15.9282 1.32714L16.4018 1.65099L16.9662 0.825496L16.4926 0.50165L15.9282 1.32714ZM16.4018 1.65099L16.6578 1.1375L15.7629 0.69129L15.5069 1.20478L16.4018 1.65099ZM13.9168 6.635L16.4018 1.65099L15.5069 1.20478L13.0218 6.18879L13.9168 6.635ZM8.01667 6.07659L13.3931 6.90605L13.5455 5.91774L8.16914 5.08828L8.01667 6.07659ZM7.41663 5.98402L8.01667 6.07659L8.16914 5.08828L7.56911 4.99571L7.41663 5.98402ZM8.01667 6.07659L7.99247 5.46993L6.99327 5.50979L7.01747 6.11645L8.01667 6.07659ZM8.22327 11.256L8.01667 6.07659L7.01747 6.11645L7.22406 11.2958L8.22327 11.256ZM2.7208 13.8214L7.90981 11.74L7.53752 10.8119L2.34851 12.8933L2.7208 13.8214ZM2.20874 14.0268L2.7208 13.8214L2.34851 12.8933L1.83645 13.0987L2.20874 14.0268ZM2.7208 13.8214L2.46615 13.332L1.57904 13.7935L1.83368 14.2829L2.7208 13.8214ZM5.20945 18.6047L2.7208 13.8214L1.83368 14.2829L4.32234 19.0662L5.20945 18.6047ZM1.61749 23.1152L5.13898 19.1683L4.39281 18.5026L0.871323 22.4494L1.61749 23.1152ZM1.23472 23.5442L1.61749 23.1152L0.871323 22.4494L0.488549 22.8784L1.23472 23.5442ZM1.61749 23.1152L1.13952 22.7956L0.583745 23.6269L1.06172 23.9465L1.61749 23.1152ZM5.95344 26.0139L1.61749 23.1152L1.06172 23.9465L5.39766 26.8452L5.95344 26.0139ZM4.70675 31.9664L6.15845 26.5592L5.19265 26.2999L3.74095 31.7071L4.70675 31.9664ZM4.55009 32.5499L4.70675 31.9664L3.74095 31.7071L3.58429 32.2906L4.55009 32.5499ZM4.70675 31.9664L4.10423 31.9216L4.03015 32.9188L4.63267 32.9636L4.70675 31.9664ZM10.3004 32.3819L4.70675 31.9664L4.63267 32.9636L10.2263 33.3791L10.3004 32.3819ZM11.9886 37.9409L10.7496 32.7641L9.77708 32.9969L11.016 38.1737L11.9886 37.9409ZM12.1205 38.492L11.9886 37.9409L11.016 38.1737L11.1479 38.7247L12.1205 38.492ZM11.9886 37.9409L11.4582 38.1404L11.8102 39.0764L12.3406 38.8769L11.9886 37.9409ZM16.9548 36.0734L11.9886 37.9409L12.3406 38.8769L17.3068 37.0094L16.9548 36.0734ZM21.0357 40.375L17.5122 36.2181L16.7494 36.8647L20.2729 41.0216L21.0357 40.375ZM21.4288 40.8388L21.0357 40.375L20.2729 41.0216L20.666 41.4854L21.4288 40.8388ZM21.0357 40.375L20.6565 40.8503L21.4383 41.4739L21.8174 40.9986L21.0357 40.375ZM24.3428 36.2296L21.0357 40.375L21.8174 40.9986L25.1245 36.8532L24.3428 36.2296ZM30.0828 37.9409L24.9034 36.0711L24.5638 37.0117L29.7433 38.8815L30.0828 37.9409ZM30.6087 38.1308L30.0828 37.9409L29.7433 38.8815L30.2692 39.0714L30.6087 38.1308ZM30.0828 37.9409L29.9527 38.4847L30.9252 38.7174L31.0553 38.1737L30.0828 37.9409ZM31.3291 32.7334L30.0828 37.9409L31.0553 38.1737L32.3017 32.9661L31.3291 32.7334ZM36.9233 31.5238L31.7362 32.3561L31.8946 33.3434L37.0817 32.5112L36.9233 31.5238ZM37.461 31.4375L36.9233 31.5238L37.0817 32.5112L37.6194 32.4249L37.461 31.4375ZM36.9233 31.5238L37.055 32.0522L38.0253 31.8103L37.8936 31.2819L36.9233 31.5238ZM35.6863 26.562L36.9233 31.5238L37.8936 31.2819L36.6566 26.3201L35.6863 26.562ZM40.4539 23.1152L35.9025 26.0196L36.4405 26.8626L40.9918 23.9581L40.4539 23.1152ZM40.9636 22.7899L40.4539 23.1152L40.9918 23.9581L41.5016 23.6328L40.9636 22.7899ZM40.4539 23.1152L40.8692 23.5547L41.5961 22.868L41.1808 22.4284L40.4539 23.1152ZM36.735 19.1787L40.4539 23.1152L41.1808 22.4284L37.462 18.492L36.735 19.1787ZM39.3506 13.8214L36.6629 18.5898L37.5341 19.0808L40.2217 14.3124L39.3506 13.8214ZM39.648 13.2937L39.3506 13.8214L40.2217 14.3124L40.5192 13.7847L39.648 13.2937ZM39.3506 13.8214L39.9251 14.0134L40.2421 13.065L39.6676 12.873L39.3506 13.8214ZM34.3962 12.1653L39.3506 13.8214L39.6676 12.873L34.7132 11.2169L34.3962 12.1653ZM34.0547 6.07659V11.6911H35.0547V6.07659H34.0547ZM34.0547 5.49353V6.07659H35.0547V5.49353H34.0547ZM34.0547 6.07659L34.631 5.98769L34.4785 4.99938L33.9022 5.08828L34.0547 6.07659ZM28.6783 6.90605L34.0547 6.07659L33.9022 5.08828L28.5258 5.91774L28.6783 6.90605ZM25.6696 1.65099L28.1546 6.635L29.0495 6.18879L26.5645 1.20478L25.6696 1.65099ZM16.1458 2.16447L13.7539 6.96171L14.6488 7.40792L17.0407 2.61069L16.1458 2.16447ZM21.2564 4.97019L16.8754 1.97483L16.311 2.80033L20.6919 5.79568L21.2564 4.97019ZM21.5524 5.17263L21.2564 4.97019L20.6919 5.79568L20.988 5.99813L21.5524 5.17263ZM21.2564 4.97019L20.9697 5.18578L21.5708 5.98498L21.8574 5.76938L21.2564 4.97019ZM25.1896 2.012L21.2564 4.97019L21.8574 5.76938L25.7907 2.81119L25.1896 2.012ZM28.3175 6.96171L25.9376 2.18849L25.0427 2.6347L27.4226 7.40792L28.3175 6.96171ZM28.4804 7.28842L28.3175 6.96171L27.4226 7.40792L27.5855 7.73463L28.4804 7.28842ZM28.3175 6.96171L27.9567 7.01737L28.1092 8.00568L28.47 7.95002L28.3175 6.96171ZM33.4785 6.16549L28.3175 6.96171L28.47 7.95002L33.631 7.1538L33.4785 6.16549ZM34.0547 12.0512V6.65964H33.0547V12.0512H34.0547ZM34.0547 12.4112V12.0512H33.0547V12.4112H34.0547ZM34.0547 12.0512L33.7132 11.937L33.3962 12.8854L33.7377 12.9996L34.0547 12.0512ZM38.7761 13.6294L34.0547 12.0512L33.7377 12.9996L38.4591 14.5778L38.7761 13.6294ZM36.482 18.9108L39.0532 14.3491L38.182 13.8581L35.6108 18.4198L36.482 18.9108ZM36.3011 19.2318L36.482 18.9108L35.6108 18.4198L35.4299 18.7408L36.3011 19.2318ZM36.482 18.9108L36.2289 18.643L35.502 19.3297L35.7551 19.5976L36.482 18.9108ZM40.0386 22.6756L36.482 18.9108L35.7551 19.5976L39.3117 23.3623L40.0386 22.6756ZM35.5993 26.2131L39.9441 23.4404L39.4062 22.5975L35.0614 25.3701L35.5993 26.2131ZM35.2962 26.4065L35.5993 26.2131L35.0614 25.3701L34.7582 25.5636L35.2962 26.4065ZM35.5993 26.2131L35.5123 25.8641L34.542 26.106L34.629 26.455L35.5993 26.2131ZM36.7916 30.9954L35.5993 26.2131L34.629 26.455L35.8213 31.2373L36.7916 30.9954ZM31.4068 32.4089L36.3857 31.6101L36.2272 30.6227L31.2484 31.4215L31.4068 32.4089ZM31.0774 32.4618L31.4068 32.4089L31.2484 31.4215L30.919 31.4744L31.0774 32.4618ZM31.4068 32.4089L31.4844 32.0845L30.5119 31.8517L30.4342 32.1762L31.4068 32.4089ZM30.213 37.3971L31.4068 32.4089L30.4342 32.1762L29.2404 37.1644L30.213 37.3971ZM24.5663 35.9494L29.5569 37.7511L29.8965 36.8105L24.9058 35.0088L24.5663 35.9494ZM24.2292 35.8277L24.5663 35.9494L24.9058 35.0088L24.5687 34.8871L24.2292 35.8277ZM24.5663 35.9494L24.7898 35.6692L24.0081 35.0456L23.7846 35.3258L24.5663 35.9494ZM21.4149 39.8997L24.5663 35.9494L23.7846 35.3258L20.6331 39.2761L21.4149 39.8997ZM17.2844 35.9494L20.6426 39.9112L21.4054 39.2646L18.0473 35.3028L17.2844 35.9494ZM17.0567 35.6807L17.2845 35.9494L18.0473 35.3028L17.8195 35.0341L17.0567 35.6807ZM17.2845 35.9494L17.6141 35.8254L17.2621 34.8894L16.9325 35.0134L17.2845 35.9494ZM12.5189 37.7415L17.2845 35.9494L16.9325 35.0134L12.167 36.8055L12.5189 37.7415ZM10.6646 32.4089L11.8567 37.3898L12.8292 37.1571L11.6371 32.1762L10.6646 32.4089ZM10.5796 32.0537L10.6646 32.4089L11.6371 32.1762L11.5521 31.821L10.5796 32.0537ZM10.6646 32.4089L11.0288 32.436L11.1029 31.4387L10.7387 31.4117L10.6646 32.4089ZM5.30927 32.0111L10.6646 32.4089L10.7387 31.4117L5.38335 31.0139L5.30927 32.0111ZM6.25138 26.2131L4.86341 31.3828L5.82921 31.6421L7.21718 26.4724L6.25138 26.2131ZM6.34431 25.8669L6.25138 26.2131L7.21718 26.4724L7.31011 26.1262L6.34431 25.8669ZM6.25138 26.2131L6.54932 26.4123L7.1051 25.5809L6.80716 25.3817L6.25138 26.2131ZM2.09546 23.4347L6.25138 26.2131L6.80716 25.3817L2.65124 22.6034L2.09546 23.4347ZM5.36873 18.9108L2.00027 22.6861L2.74643 23.3519L6.1149 19.5766L5.36873 18.9108ZM5.59849 18.6533L5.36873 18.9108L6.1149 19.5766L6.34466 19.3191L5.59849 18.6533ZM5.36873 18.9108L5.52802 19.217L6.41513 18.7554L6.25585 18.4493L5.36873 18.9108ZM2.97544 14.3108L5.36873 18.9108L6.25585 18.4493L3.86256 13.8493L2.97544 14.3108ZM8.23733 11.6086L3.23286 13.616L3.60514 14.5441L8.60962 12.5367L8.23733 11.6086ZM8.56486 11.4772L8.23733 11.6086L8.60962 12.5367L8.93714 12.4053L8.56486 11.4772ZM8.23733 11.6086L8.2514 11.9612L9.2506 11.9213L9.23654 11.5687L8.23733 11.6086ZM8.04087 6.68324L8.23733 11.6086L9.23654 11.5687L9.04007 6.64339L8.04087 6.68324ZM13.7539 6.96171L8.61671 6.16916L8.46424 7.15747L13.6014 7.95002L13.7539 6.96171ZM14.1147 7.01737L13.7539 6.96171L13.6014 7.95002L13.9622 8.00568L14.1147 7.01737ZM13.7539 6.96171L13.591 7.28842L14.4859 7.73463L14.6488 7.40792L13.7539 6.96171ZM27.4349 15.8129L17.9464 24.8854L18.6375 25.6082L28.126 16.5357L27.4349 15.8129ZM26.7279 15.7971L27.419 16.5198L28.1418 15.8288L27.4507 15.106L26.7279 15.7971ZM18.3119 24.5359L27.4349 15.8129L26.7438 15.0901L17.6208 23.8132L18.3119 24.5359ZM14.6365 21.3449L17.6011 24.516L18.3316 23.8331L15.367 20.662L14.6365 21.3449ZM14.6127 22.0516L15.3432 21.3687L14.6603 20.6382L13.9298 21.3211L14.6127 22.0516ZM17.9464 24.8854L14.6365 21.3449L13.906 22.0278L17.2159 25.5683L17.9464 24.8854ZM18.2918 25.2548L17.9464 24.8854L17.2159 25.5683L17.5613 25.9377L18.2918 25.2548ZM17.9464 24.8854L17.581 25.2348L18.2721 25.9576L18.6375 25.6082L17.9464 24.8854ZM21.0357 32.5731C27.5828 32.5731 32.8927 27.2503 32.8927 20.6814H31.8927C31.8927 26.7006 27.0279 31.5731 21.0357 31.5731V32.5731ZM9.17865 20.6814C9.17865 27.2503 14.4886 32.5731 21.0357 32.5731V31.5731C15.0434 31.5731 10.1786 26.7006 10.1786 20.6814H9.17865ZM21.0357 8.78971C14.4886 8.78971 9.17865 14.1124 9.17865 20.6814H10.1786C10.1786 14.6622 15.0434 9.78971 21.0357 9.78971V8.78971ZM32.8927 20.6814C32.8927 14.1124 27.5828 8.78971 21.0357 8.78971V9.78971C27.0279 9.78971 31.8927 14.6622 31.8927 20.6814H32.8927ZM21.0357 33.5731C28.1377 33.5731 33.8927 27.8 33.8927 20.6814H32.8927C32.8927 27.2503 27.5828 32.5731 21.0357 32.5731V33.5731ZM8.17865 20.6814C8.17865 27.8 13.9336 33.5731 21.0357 33.5731V32.5731C14.4885 32.5731 9.17865 27.2503 9.17865 20.6814H8.17865ZM21.0357 7.78971C13.9336 7.78971 8.17865 13.5628 8.17865 20.6814H9.17865C9.17865 14.1125 14.4885 8.78971 21.0357 8.78971V7.78971ZM33.8927 20.6814C33.8927 13.5628 28.1377 7.78971 21.0357 7.78971V8.78971C27.5828 8.78971 32.8927 14.1125 32.8927 20.6814H33.8927Z" fill="#507AB9"/>
</svg>
